<?xml version="1.0" encoding="utf-8"?>
<!-- Generator: Adobe Illustrator 23.0.1, SVG Export Plug-In . SVG Version: 6.00 Build 0)  -->
<svg version="1.1" id="Warstwa_1" xmlns="http://www.w3.org/2000/svg" xmlns:xlink="http://www.w3.org/1999/xlink" x="0px" y="0px"
	 viewBox="0 0 380 380" style="enable-background:new 0 0 380 380;" xml:space="preserve">
<style type="text/css">
	.st0{fill:#FFFFFF;}
	.st1{fill:#E37B13;}
	.st2{fill:#FFD262;}
	.st3{fill:#FFC942;}
	.st4{fill:#FDBB13;}
	.st5{fill:#D93D1F;}
	.st6{fill:#FFF1D0;}
	.st7{fill:#688A3C;}
	.st8{fill:#3D9721;}
	.st9{fill:#A5C013;}
</style>
<g>
	<g>
		<g>
			<circle class="st0" cx="190.8" cy="190.8" r="189.3"/>
		</g>
	</g>
	<g>
		<g>
			
				<ellipse transform="matrix(0.7071 -0.7071 0.7071 0.7071 -79.3376 190.8705)" class="st1" cx="190.7" cy="191.2" rx="150.1" ry="150.1"/>
		</g>
		<g>
			
				<ellipse transform="matrix(0.7071 -0.7071 0.7071 0.7071 -79.3376 190.8706)" class="st2" cx="190.7" cy="191.2" rx="132.8" ry="132.8"/>
		</g>
		<g>
			<g>
				<path class="st3" d="M121.7,249.7c9.3-14.8,21.1-27.9,34.8-38.7c7.9-6.3,18.2-12,27.7-8.6c11.2,4,14.8,18.8,12.1,30.4
					c-2.7,11.6-9.7,21.9-12.9,33.4c-3.3,11.5-1.3,26.2,9.2,31.8c7.6,4,17.4,1.8,24.3-3.3c6.9-5.1,11.6-12.7,16-20.1
					c9.5-16,18.6-32.6,22.7-50.8c4.1-18.2,2.7-38.3-7.7-53.8c-10.3-15.5-30.7-24.9-48.4-19c-12.2,4-21.2,14.1-30.7,22.7
					c-9.5,8.6-21.6,16.5-34.3,14.5c-17-2.7-26.5-22-26.4-39.1c0.1-8.6,2-17.5,7.6-23.9c5.7-6.4,15.7-9.4,23.1-5.1
					c6.5,3.8,10,12.3,17.3,14.3c7.3,1.9,14.6-4,17.7-10.9c3.1-6.9,3.3-14.7,5.2-22c4-15.6,17.6-29.6,33.7-29.5
					c16.1,0.1,30.5,18.7,23.1,33c-4.4,8.7-15.4,15.4-13.7,25c1.8,9.9,16.1,12,24.7,6.8c8.6-5.2,13.8-14.5,21.3-21.1
					c6.6-5.8,14.8-9.2,23.5-10.5c-24.4-28.6-60.6-46.7-101-46.7C117.4,58.4,58,117.9,58,191.2c0,34.7,13.3,66.2,35,89.8
					C106.5,276.5,114,261.9,121.7,249.7z"/>
			</g>
			<g>
				<path class="st3" d="M320.8,217.9c-0.3-1.2-0.6-2.5-0.9-3.7c-1.9-7.7-5.3-15.7-12.2-19.6c-12.1-6.8-27.5,3.4-33,16.1
					c-5.5,12.7-4.8,27.1-7.7,40.6c-5.5,25.1-24.6,46.7-48.7,55.3c-20.9,7.4-48.1,3.1-59.3-16.1c-3.6-6.1-5.4-13.5-10.9-18
					c-6.4-5.3-16.4-4.7-23.4-0.2c-7,4.5-11.5,12.2-14.2,20.1c-0.4,1.2-0.7,2.5-1.1,3.7c22.5,17.5,50.7,27.9,81.4,27.9
					C254.9,324,308.5,278.4,320.8,217.9z"/>
			</g>
		</g>
		<g>
			<g>
				<circle class="st4" cx="75.5" cy="155.5" r="3.5"/>
			</g>
			<g>
				<circle class="st4" cx="169.5" cy="133.4" r="4.9"/>
			</g>
			<g>
				<path class="st4" d="M182.8,73.2c0,1.8-1.4,3.2-3.2,3.2c-1.8,0-3.2-1.4-3.2-3.2c0-1.8,1.4-3.2,3.2-3.2
					C181.4,70,182.8,71.4,182.8,73.2z"/>
			</g>
			<g>
				<circle class="st4" cx="262.7" cy="154.1" r="3.6"/>
			</g>
			<g>
				<path class="st4" d="M222.7,157.8c0,1.3-1,2.3-2.3,2.3c-1.3,0-2.3-1-2.3-2.3c0-1.3,1-2.3,2.3-2.3
					C221.7,155.5,222.7,156.5,222.7,157.8z"/>
			</g>
			<g>
				<path class="st4" d="M163.8,212.7c0,2.3-1.9,4.2-4.2,4.2c-2.3,0-4.2-1.9-4.2-4.2c0-2.3,1.9-4.2,4.2-4.2
					C161.9,208.5,163.8,210.4,163.8,212.7z"/>
			</g>
			<g>
				<path class="st4" d="M129.7,245.1c0,2.3-1.9,4.2-4.2,4.2c-2.3,0-4.2-1.9-4.2-4.2s1.9-4.2,4.2-4.2
					C127.8,240.9,129.7,242.8,129.7,245.1z"/>
			</g>
			<g>
				<path class="st4" d="M173.2,270.2c0,1-0.9,1.9-1.9,1.9c-1,0-1.9-0.9-1.9-1.9s0.9-1.9,1.9-1.9
					C172.4,268.3,173.2,269.1,173.2,270.2z"/>
			</g>
			<g>
				<path class="st4" d="M166.6,311.8c0,1.9-1.6,3.5-3.5,3.5c-1.9,0-3.5-1.6-3.5-3.5c0-1.9,1.6-3.5,3.5-3.5
					C165,308.3,166.6,309.9,166.6,311.8z"/>
			</g>
			<g>
				<circle class="st4" cx="147.5" cy="183.8" r="3.3"/>
			</g>
			<g>
				<path class="st4" d="M278,231.1c0,3.7-3,6.7-6.7,6.7s-6.7-3-6.7-6.7c0-3.7,3-6.7,6.7-6.7S278,227.4,278,231.1z"/>
			</g>
			<g>
				<circle class="st4" cx="215.3" cy="239.8" r="2"/>
			</g>
			<g>
				<path class="st4" d="M307.4,230.6c0,1.5-1.2,2.7-2.7,2.7c-1.5,0-2.7-1.2-2.7-2.7c0-1.5,1.2-2.7,2.7-2.7
					C306.2,227.9,307.4,229.1,307.4,230.6z"/>
			</g>
			<g>
				<path class="st4" d="M208.6,117.6c0,1.5-1.2,2.7-2.7,2.7c-1.5,0-2.7-1.2-2.7-2.7c0-1.5,1.2-2.7,2.7-2.7
					C207.4,114.9,208.6,116.1,208.6,117.6z"/>
			</g>
			<g>
				<path class="st4" d="M238.4,77c0,1.3-1,2.3-2.3,2.3c-1.3,0-2.3-1-2.3-2.3s1-2.3,2.3-2.3C237.4,74.7,238.4,75.7,238.4,77z"/>
			</g>
			<g>
				<path class="st4" d="M137,82.5c0,1.3-1,2.3-2.3,2.3s-2.3-1-2.3-2.3c0-1.3,1-2.3,2.3-2.3S137,81.2,137,82.5z"/>
			</g>
			<g>
				<path class="st4" d="M73.3,189.6c0,1.5-1.2,2.8-2.8,2.8c-1.5,0-2.8-1.2-2.8-2.8s1.2-2.8,2.8-2.8C72,186.8,73.3,188.1,73.3,189.6
					z"/>
			</g>
			<g>
				<path class="st4" d="M125.3,289.9c0,1.7-1.4,3-3,3s-3-1.4-3-3s1.4-3,3-3S125.3,288.2,125.3,289.9z"/>
			</g>
			<g>
				<circle class="st4" cx="187.9" cy="169.3" r="1.4"/>
			</g>
			<g>
				<path class="st4" d="M254.8,286c0,2.2-1.8,3.9-3.9,3.9c-2.2,0-3.9-1.8-3.9-3.9c0-2.2,1.8-3.9,3.9-3.9
					C253,282.1,254.8,283.8,254.8,286z"/>
			</g>
			<g>
				<circle class="st4" cx="247.7" cy="214.6" r="1.9"/>
			</g>
			<g>
				<path class="st4" d="M278.9,156.4c0,1.2-1,2.1-2.1,2.1c-1.2,0-2.1-1-2.1-2.1c0-1.2,1-2.1,2.1-2.1
					C277.9,154.3,278.9,155.2,278.9,156.4z"/>
			</g>
			<g>
				<path class="st4" d="M282.9,108.5c0,1.7-1.4,3.1-3.1,3.1c-1.7,0-3.1-1.4-3.1-3.1s1.4-3.1,3.1-3.1
					C281.5,105.3,282.9,106.7,282.9,108.5z"/>
			</g>
		</g>
		<g>
			<g>
				<path class="st5" d="M211.2,79.3c0,7.7-6.2,13.9-13.9,13.9c-7.7,0-13.9-6.2-13.9-13.9c0-7.7,6.2-13.9,13.9-13.9
					C205,65.4,211.2,71.6,211.2,79.3z"/>
			</g>
			<g>
				<path class="st5" d="M196.5,112.7c0,7.7-6.2,13.9-13.9,13.9c-7.7,0-13.9-6.2-13.9-13.9s6.2-13.9,13.9-13.9
					C190.3,98.8,196.5,105,196.5,112.7z"/>
			</g>
			<g>
				<path class="st5" d="M211.4,148.3c0,7.7-6.2,13.9-13.9,13.9c-7.7,0-13.9-6.2-13.9-13.9s6.2-13.9,13.9-13.9
					C205.2,134.4,211.4,140.6,211.4,148.3z"/>
			</g>
			<g>
				<path class="st5" d="M207.2,189.3c0,7.7-6.2,13.9-13.9,13.9c-7.7,0-13.9-6.2-13.9-13.9c0-7.7,6.2-13.9,13.9-13.9
					C201,175.4,207.2,181.6,207.2,189.3z"/>
			</g>
			<g>
				<circle class="st5" cx="166" cy="157.9" r="13.9"/>
			</g>
			<g>
				<path class="st5" d="M150.5,173.2c7.7,0,13.9,6.2,13.9,13.9s-6.2,13.9-13.9,13.9c-7.7,0-13.9-6.2-13.9-13.9
					S142.8,173.2,150.5,173.2z"/>
			</g>
			<g>
				<path class="st5" d="M150.3,208.8c5.4-5.4,14.2-5.4,19.6,0c5.4,5.4,5.4,14.2,0,19.6c-5.4,5.4-14.2,5.4-19.6,0
					C144.8,223,144.8,214.2,150.3,208.8z"/>
			</g>
			<g>
				<path class="st5" d="M175.3,234.1c0-7.7,6.2-13.9,13.9-13.9c7.7,0,13.9,6.2,13.9,13.9s-6.2,13.9-13.9,13.9
					C181.5,248,175.3,241.8,175.3,234.1z"/>
			</g>
			<g>
				<circle class="st5" cx="220.7" cy="224.5" r="13.9"/>
			</g>
			<g>
				<path class="st5" d="M236.3,209.3c-7.7,0-13.9-6.2-13.9-13.9c0-7.7,6.2-13.9,13.9-13.9s13.9,6.2,13.9,13.9
					C250.1,203,243.9,209.3,236.3,209.3z"/>
			</g>
			<g>
				<circle class="st5" cx="226.6" cy="163.8" r="13.9"/>
			</g>
			<g>
				<path class="st5" d="M156.9,121.6c3.8,6.6,1.6,15.1-5.1,19c-6.6,3.8-15.1,1.6-19-5.1c-3.8-6.6-1.6-15.1,5.1-19
					C144.5,112.7,153,115,156.9,121.6z"/>
			</g>
			<g>
				<path class="st5" d="M127,149.2c6.6,3.8,8.9,12.3,5.1,19c-3.8,6.6-12.3,8.9-19,5.1c-6.6-3.8-8.9-12.3-5.1-19
					C111.8,147.6,120.3,145.4,127,149.2z"/>
			</g>
			<g>
				<path class="st5" d="M114.8,188c7.7,0,13.9,6.2,13.9,13.9c0,7.7-6.2,13.9-13.9,13.9c-7.7,0-13.9-6.2-13.9-13.9
					C100.9,194.2,107.2,188,114.8,188z"/>
			</g>
			<g>
				<path class="st5" d="M123.8,227.7c6.6-3.8,15.1-1.6,19,5.1c3.8,6.6,1.6,15.1-5.1,19c-6.6,3.8-15.1,1.6-19-5.1
					C114.8,240,117.1,231.5,123.8,227.7z"/>
			</g>
			<g>
				
					<ellipse transform="matrix(0.9653 -0.2613 0.2613 0.9653 -63.4434 51.8699)" class="st5" cx="163.4" cy="264.6" rx="13.9" ry="13.9"/>
			</g>
			<g>
				<path class="st5" d="M190.2,269.7c0-7.7,6.2-13.9,13.9-13.9c7.7,0,13.9,6.2,13.9,13.9c0,7.7-6.2,13.9-13.9,13.9
					C196.4,283.6,190.2,277.4,190.2,269.7z"/>
			</g>
			<g>
				<path class="st5" d="M229.9,260.8c-3.8-6.6-1.6-15.1,5.1-19c6.6-3.8,15.1-1.6,19,5.1c3.8,6.6,1.6,15.1-5.1,19
					C242.2,269.7,233.7,267.4,229.9,260.8z"/>
			</g>
			<g>
				<path class="st5" d="M259.8,233.2c-6.6-3.8-8.9-12.3-5.1-19c3.8-6.6,12.3-8.9,19-5.1c6.6,3.8,8.9,12.3,5.1,19
					C274.9,234.8,266.4,237.1,259.8,233.2z"/>
			</g>
			<g>
				<path class="st5" d="M271.9,194.4c-7.7,0-13.9-6.2-13.9-13.9c0-7.7,6.2-13.9,13.9-13.9c7.7,0,13.9,6.2,13.9,13.9
					C285.8,188.2,279.5,194.4,271.9,194.4z"/>
			</g>
			<g>
				<path class="st5" d="M262.9,154.7c-6.6,3.8-15.1,1.6-19-5.1c-3.8-6.6-1.6-15.1,5.1-19c6.6-3.8,15.1-1.6,19,5.1
					C271.9,142.4,269.6,150.9,262.9,154.7z"/>
			</g>
			<g>
				<path class="st5" d="M235.4,124.8c-3.8,6.6-12.3,8.9-19,5.1c-6.6-3.8-8.9-12.3-5.1-19c3.8-6.6,12.3-8.9,19-5.1
					C236.9,109.7,239.2,118.2,235.4,124.8z"/>
			</g>
			<g>
				<path class="st5" d="M171.9,79.9c2.6,7.2-1.1,15.2-8.3,17.8c-7.2,2.6-15.2-1.1-17.8-8.3c-2.6-7.2,1.1-15.2,8.3-17.8
					C161.3,69,169.3,72.7,171.9,79.9z"/>
			</g>
			<g>
				<path class="st5" d="M135.1,94c4.9,5.9,4.2,14.6-1.7,19.6c-5.9,4.9-14.6,4.2-19.6-1.7c-4.9-5.9-4.2-14.6,1.7-19.6
					C121.4,87.3,130.2,88.1,135.1,94z"/>
			</g>
			<g>
				<path class="st5" d="M105.4,119.7c6.6,3.8,8.9,12.3,5.1,19c-3.8,6.6-12.3,8.9-19,5.1c-6.6-3.8-8.9-12.3-5.1-19
					C90.2,118.2,98.7,115.9,105.4,119.7z"/>
			</g>
			<g>
				<path class="st5" d="M86.2,154.1c7.6,1.3,12.6,8.5,11.3,16.1c-1.3,7.6-8.5,12.6-16.1,11.3c-7.6-1.3-12.6-8.5-11.3-16.1
					C71.5,157.9,78.7,152.8,86.2,154.1z"/>
			</g>
			<g>
				<path class="st5" d="M80,193c7.6-1.3,14.8,3.7,16.1,11.3c1.3,7.6-3.7,14.8-11.3,16.1c-7.6,1.3-14.8-3.7-16.1-11.3
					C67.4,201.6,72.5,194.3,80,193z"/>
			</g>
			<g>
				<path class="st5" d="M87.5,231.7c6.6-3.8,15.1-1.6,19,5.1c3.8,6.6,1.6,15.1-5.1,19c-6.6,3.8-15.1,1.6-19-5.1
					C78.6,244,80.8,235.5,87.5,231.7z"/>
			</g>
			<g>
				
					<ellipse transform="matrix(0.9963 -8.573163e-02 8.573163e-02 0.9963 -23.0859 11.1564)" class="st5" cx="118.3" cy="274.4" rx="13.9" ry="13.9"/>
			</g>
			<g>
				<path class="st5" d="M138.3,290.3c2.6-7.2,10.6-10.9,17.8-8.3c7.2,2.6,10.9,10.6,8.3,17.8c-2.6,7.2-10.6,10.9-17.8,8.3
					C139.4,305.4,135.6,297.5,138.3,290.3z"/>
			</g>
			<g>
				<path class="st5" d="M175.5,303.1c0-7.7,6.2-13.9,13.9-13.9c7.7,0,13.9,6.2,13.9,13.9c0,7.7-6.2,13.9-13.9,13.9
					C181.7,317,175.5,310.8,175.5,303.1z"/>
			</g>
			<g>
				<path class="st5" d="M214.8,302.5c-2.6-7.2,1.1-15.2,8.3-17.8c7.2-2.6,15.2,1.1,17.8,8.3c2.6,7.2-1.1,15.2-8.3,17.8
					C225.4,313.4,217.4,309.7,214.8,302.5z"/>
			</g>
			<g>
				<path class="st5" d="M251.6,288.4c-4.9-5.9-4.2-14.6,1.7-19.6s14.6-4.2,19.6,1.7c4.9,5.9,4.2,14.6-1.7,19.6
					C265.3,295.1,256.5,294.3,251.6,288.4z"/>
			</g>
			<g>
				<path class="st5" d="M281.3,262.7c-6.6-3.8-8.9-12.3-5.1-19c3.8-6.6,12.3-8.9,19-5.1c6.6,3.8,8.9,12.3,5.1,19
					C296.5,264.2,288,266.5,281.3,262.7z"/>
			</g>
			<g>
				<path class="st5" d="M300.5,228.3c-7.6-1.3-12.6-8.5-11.3-16.1c1.3-7.6,8.5-12.6,16.1-11.3c7.6,1.3,12.6,8.5,11.3,16.1
					C315.2,224.5,308,229.6,300.5,228.3z"/>
			</g>
			<g>
				<path class="st5" d="M306.7,189.4c-7.6,1.3-14.8-3.7-16.1-11.3c-1.3-7.6,3.7-14.8,11.3-16.1s14.8,3.7,16.1,11.3
					C319.3,180.9,314.2,188.1,306.7,189.4z"/>
			</g>
			<g>
				<path class="st5" d="M299.2,150.7c-6.6,3.8-15.1,1.6-19-5.1c-3.8-6.6-1.6-15.1,5.1-19c6.6-3.8,15.1-1.6,19,5.1
					C308.1,138.4,305.9,146.9,299.2,150.7z"/>
			</g>
			<g>
				<path class="st5" d="M279,117c-4.9,5.9-13.7,6.6-19.6,1.7c-5.9-4.9-6.6-13.7-1.7-19.6c4.9-5.9,13.7-6.6,19.6-1.7
					C283.2,102.3,283.9,111.1,279,117z"/>
			</g>
			<g>
				<path class="st5" d="M248.4,92.2c-2.6,7.2-10.6,10.9-17.8,8.3c-7.2-2.6-10.9-10.6-8.3-17.8c2.6-7.2,10.6-10.9,17.8-8.3
					C247.4,77,251.1,84.9,248.4,92.2z"/>
			</g>
		</g>
		<g>
			<g>
				<path class="st6" d="M100.1,127.3c1.4-3.9,4.7-9.5,8.3-11.5c10.4-5.9,7.4,3.4,4,9.5c-6.2,11-12.8,21.2-17.7,33
					c-3.7,8.9-16.3,30.3-9.9,39.6c6.8,10,18.3-6,22-11.1c14.7-20.3,27.2-42.2,43.8-61.1c9.2-10.5,19.6-20.3,31.6-27.5
					c3.3-2,16.8-10.7,12.8-0.5c-1.1,2.7-5.7,5.8-7.8,8c-20.4,21.5-39.1,46.5-53.3,72.4c-13.1,23.8-22.9,50.1-25.2,77.3
					c-1.2,13.8,7.9,19.6,16.3,6.8c8.8-13.3,14.5-29.6,22.3-43.6c7.9-14.2,16.5-28.1,26.4-41c11.9-15.6,25.6-30,41.3-41.8
					c9.9-7.4,31.4-24.5,44.7-21.4c-0.7-1.6-1.3-3.2-2-4.9c-3.8,8.2-13,14.2-19.1,20.8c-9.4,10.2-18.5,20.6-27.3,31.2
					c-15.2,18.5-29.4,37.9-41.2,58.7c-8.5,15.1-16.2,31.1-22.8,47.2c-2.9,7-10.4,22.6-3.4,29.6c13.5,13.5,35.4-36.6,40.8-44.6
					c15.1-22.4,31.5-44,50.3-63.4c8.5-8.8,17.5-17.1,26.9-24.9c4.6-3.7,9.4-7.2,14.1-10.8c2-1.5,4.1-3.7,6.2-5.1
					c2.7-1.3,5.4-2.6,8.2-3.9c-0.7,1.1-1.4,2.3-2.2,3.4c-5.2,12.6-17,25.1-24.3,36.6c-8,12.6-15.7,25.5-22.6,38.7
					c-5.6,10.8-10.8,22-14.6,33.6c-1.9,5.8-9.3,22.2-5.1,27.6c1.2,1.6,2.7,2,4.5,1.2c9.5-4,13.7-14.6,19.3-22.5
					c6.6-9.4,13.9-18.4,21.4-27.1c4-4.6,37.9-41.2,39.7-38.9c2.9,3.7-10.6,23.7-12.7,27.2c-4.5,7.5-9.2,14.9-14.1,22.1
					c-3.3,4.9-8.5,12.4-3.1,17.9c2.3,2.3,4.7,2.9,7.8,2.3c2.7-0.5,12.6-7.6,12.9-8.9c-1,4.1,5.4,5.9,6.4,1.8
					c1.7-6.8-4.2-11.4-10.7-8.5c-0.7,0.3-6,5.3-5.7,5.4c-9.4-1.1-2.2-4.9-1.8-6.7c0.7-3.3,5.3-7.9,7.1-10.7
					c4.4-6.8,28.9-39.4,18.4-47.6c-9.9-7.8-32.9,22.1-37.9,27.6c-6.1,6.6-12,13.4-17.8,20.3c-5.5,6.6-10.7,13.4-15.7,20.4
					c-4.8,6.8-8.8,16.6-16.9,20.1c1.5,0.4,3,0.8,4.5,1.2c-2.9-3.8,7.6-27.7,9.3-32c4.9-12.4,11.2-24.3,17.8-35.9
					c12.3-21.7,27.2-41.7,40.2-62.9c4-6.4,6.3-14.8-4.4-13.6c-6.2,0.7-11.3,6.2-15.9,9.8c-9,7.1-18.2,13.8-26.8,21.4
					c-31.1,27.7-59.2,62.4-79.3,98.9c-3.4,6.2-6.9,12.6-11.1,18.3c-0.6,0.9-5.5,7.9-7.1,7.5c-4.3-1.1-1-10.1-0.3-12.7
					c4.3-15,12.6-30.3,19.6-44.2c13.4-26.5,30.9-50.6,49.9-73.3c8.3-9.9,16.8-19.8,25.7-29.2c6.2-6.5,14.5-11.9,18.4-20.2
					c0.8-1.8,0.3-4.4-2-4.9c-19.1-4.4-45,17.8-58.3,28.9c-22.4,18.7-40.2,42.4-55.1,67.3c-7.9,13.3-15.1,27-21.9,40.8
					c-1.3,2.6-2.7,6.8-4.5,9.3c-0.7,1.5-1.5,3.1-2.2,4.6c-3.8,3-5.2,2.7-4.2-0.9c-3-4.2,4.3-26.4,5.9-32
					c9.5-33.5,28.3-63.4,49.8-90.5c8.2-10.3,16.7-20.3,25.8-29.7c3.5-3.6,11.2-10.4,9.4-16.4c-4.3-14.8-33.7,7.4-38.2,10.9
					c-23,17.8-39,42.6-55.2,66.2c-4.5,6.6-9.2,18-15.7,22.5c-5.9,4.1-6.4,0.9-4.7-5.1c1.3-4.7,3.2-9.2,4.9-13.7
					c5.8-14.9,13.2-27.8,21.1-41.6c3-5.2,8.2-14.4,3.9-20.3c-9.1-12.3-25.5,9.5-28.3,17.2C92.2,129.5,98.6,131.2,100.1,127.3
					L100.1,127.3z"/>
			</g>
		</g>
		<g>
			<path class="st7" d="M219.1,139c-11.6-6.8-18.3-21.2-15.8-34.4c6.2,2.9,10.6,8.2,13.7,14.3C220.1,124.9,220.3,132.3,219.1,139z"
				/>
		</g>
		<g>
			<path class="st7" d="M130.8,212.4c-9.1,9.9-24.6,13.3-37,8.2c4.1-5.4,10.3-8.6,16.9-10.4C117.3,208.4,124.5,209.8,130.8,212.4z"
				/>
		</g>
		<g>
			<path class="st7" d="M246.4,183.6c-9.1,9.9-24.6,13.3-37,8.2c4.1-5.4,10.3-8.6,16.9-10.4C232.8,179.6,240,181,246.4,183.6z"/>
		</g>
		<g>
			<path class="st7" d="M167.6,289.7c-2.8-13.1,3.4-27.7,14.8-34.8c2,6.5,1,13.4-1.3,19.7C178.7,280.9,173.4,286,167.6,289.7z"/>
		</g>
		<g>
			<path class="st7" d="M144.5,124.7c-2.8-13.1,3.4-27.7,14.8-34.8c2,6.5,1,13.4-1.3,19.7C155.5,116,150.2,121.1,144.5,124.7z"/>
		</g>
		<g>
			<path class="st7" d="M294.5,213.3c-2.8-13.1,3.4-27.7,14.8-34.8c2,6.5,1,13.4-1.3,19.7C305.5,204.6,300.2,209.7,294.5,213.3z"/>
		</g>
		<g>
			<path class="st7" d="M245.6,271.8c-12.9-3.9-22.7-16.3-23.4-29.8c6.7,1.4,12.2,5.5,16.7,10.7C243.3,257.9,245.2,265,245.6,271.8z
				"/>
		</g>
		<g>
			<g>
				<path class="st8" d="M282.1,200.4c-1.7,0.8-2.7,0.4-4.3,1.3c-0.1-1.6-0.2-3.1-0.3-4.7C278.7,197.8,280.9,199.6,282.1,200.4z"/>
			</g>
			<g>
				<path class="st8" d="M166.4,310.8c-1.1-1.6-0.8-2.6-1.8-4.1c1.5-0.3,3.1-0.6,4.6-0.9C168.6,307.1,167.1,309.6,166.4,310.8z"/>
			</g>
			<g>
				<path class="st8" d="M267.9,126.1c0.3-1.3,1-1.6,1.4-2.9c2.2,1.1,4.3,2.1,6.5,3.2c-0.5,1-0.8,2.5-1.3,3.5
					C272.1,128.6,270.3,127.5,267.9,126.1z"/>
			</g>
			<g>
				<path class="st8" d="M92.2,263.4c0.3-1.3,1-1.6,1.4-2.9c2.2,1.1,4.3,2.1,6.5,3.2c-0.5,1-0.8,2.5-1.3,3.5
					C96.4,265.9,94.6,264.7,92.2,263.4z"/>
			</g>
			<g>
				<path class="st8" d="M203.1,292.1c-0.2-2.6,0-4.7-0.1-7.3c-1,0.8-2,1.6-3,2.4C201,288.5,202.2,290.7,203.1,292.1z"/>
			</g>
			<g>
				<path class="st9" d="M221.3,223.9c0.9-0.9,2.3-1.8,3.3-2.7c-0.6-1.5-1.1-3-1.7-4.5c-2-0.4-3.9,0.9-5.9,0.5
					C218.5,219.3,219.8,221.7,221.3,223.9z"/>
			</g>
			<g>
				<path class="st9" d="M148.2,237.3c1.7-0.8,2.7-0.4,4.3-1.3c0.1,1.6,0.2,3.1,0.3,4.7C151.6,239.9,149.4,238.1,148.2,237.3z"/>
			</g>
			<g>
				<path class="st9" d="M139.1,254.6c1.2,0.5,1.5,1.2,2.7,1.7c-1.3,2-2.7,4-4,6c-1-0.6-2.3-1.2-3.3-1.8
					C136.1,258.4,137.5,256.7,139.1,254.6z"/>
			</g>
			<g>
				<path class="st9" d="M242.7,162.3c1,0.8,2.1,2.1,3.1,2.9c1.4-0.7,2.9-1.5,4.3-2.2c0.1-2-1.4-3.7-1.3-5.7
					C246.8,159,244.6,160.6,242.7,162.3z"/>
			</g>
			<g>
				<path class="st8" d="M230.7,297.3c0.3-1.3,1-1.6,1.4-2.9c2.2,1.1,4.3,2.1,6.5,3.2c-0.5,1-0.8,2.5-1.3,3.5
					C234.9,299.8,233.1,298.6,230.7,297.3z"/>
			</g>
			<g>
				<path class="st8" d="M199.3,217c-0.2-2.6,0-4.7-0.1-7.3c-1,0.8-2,1.6-3,2.4C197.2,213.4,198.4,215.6,199.3,217z"/>
			</g>
			<g>
				<path class="st9" d="M211,251.6c1.7-0.8,2.7-0.4,4.3-1.3c0.1,1.6,0.2,3.1,0.3,4.7C214.4,254.2,212.2,252.4,211,251.6z"/>
			</g>
			<g>
				<path class="st9" d="M261,280.3c2.6,0.2,4.7,0.6,7.3,0.8c-0.7-1.1-1.3-2.2-2-3.3C264.8,278.6,262.5,279.6,261,280.3z"/>
			</g>
			<g>
				<path class="st9" d="M259.1,256.7c2.6,0.2,4.7,0.6,7.3,0.8c-0.7-1.1-1.3-2.2-2-3.3C262.8,255,260.6,255.9,259.1,256.7z"/>
			</g>
			<g>
				<path class="st8" d="M221.2,95.9c-1.7,0.8-2.7,0.4-4.3,1.3c-0.1-1.6-0.2-3.1-0.3-4.7C217.8,93.3,220,95.1,221.2,95.9z"/>
			</g>
			<g>
				<path class="st8" d="M116.3,202.4c-1.1-1.6-0.8-2.6-1.8-4.1c1.5-0.3,3.1-0.6,4.6-0.9C118.5,198.7,117,201.1,116.3,202.4z"/>
			</g>
			<g>
				<path class="st8" d="M252.1,89.4c0.3-1.3,1-1.6,1.4-2.9c2.2,1.1,4.3,2.1,6.5,3.2c-0.5,1-0.8,2.5-1.3,3.5
					C256.2,91.9,254.5,90.8,252.1,89.4z"/>
			</g>
			<g>
				<path class="st8" d="M63.8,185.7c0.3-1.3,1-1.6,1.4-2.9c2.2,1.1,4.3,2.1,6.5,3.2c-0.5,1-0.8,2.5-1.3,3.5
					C67.9,188.1,66.2,187,63.8,185.7z"/>
			</g>
			<g>
				<path class="st8" d="M122.9,185.1c-0.2-2.6,0-4.7-0.1-7.3c-1,0.8-2,1.6-3,2.4C120.7,181.5,121.9,183.7,122.9,185.1z"/>
			</g>
			<g>
				<path class="st9" d="M82.2,170.7c1.7-0.8,2.7-0.4,4.3-1.3c0.1,1.6,0.2,3.1,0.3,4.7C85.6,173.3,83.4,171.5,82.2,170.7z"/>
			</g>
			<g>
				<path class="st9" d="M79.1,146.1c1.2,0.5,1.5,1.2,2.7,1.7c-1.3,2-2.7,4-4,6c-1-0.6-2.3-1.2-3.3-1.8
					C76.2,149.9,77.5,148.3,79.1,146.1z"/>
			</g>
			<g>
				<path class="st9" d="M156.7,79.7c1,0.8,2.1,2.1,3.1,2.9c1.4-0.7,2.9-1.5,4.3-2.2c0.1-2-1.4-3.7-1.3-5.7
					C160.8,76.3,158.6,77.9,156.7,79.7z"/>
			</g>
			<g>
				<path class="st8" d="M168.8,197c0.3-1.3,1-1.6,1.4-2.9c2.2,1.1,4.3,2.1,6.5,3.2c-0.5,1-0.8,2.5-1.3,3.5
					C173,199.4,171.2,198.3,168.8,197z"/>
			</g>
			<g>
				<path class="st8" d="M128.8,138.1c-0.2-2.6,0-4.7-0.1-7.3c-1,0.8-2,1.6-3,2.4C126.6,134.5,127.8,136.7,128.8,138.1z"/>
			</g>
			<g>
				<path class="st9" d="M139.5,149.9c1.7-0.8,2.7-0.4,4.3-1.3c0.1,1.6,0.2,3.1,0.3,4.7C142.9,152.5,140.7,150.7,139.5,149.9z"/>
			</g>
			<g>
				<path class="st9" d="M190.5,170.3c2.6,0.2,4.7,0.6,7.3,0.8c-0.7-1.1-1.3-2.2-2-3.3C194.3,168.5,192,169.5,190.5,170.3z"/>
			</g>
			<g>
				<path class="st9" d="M179.2,132.6c2.6,0.2,4.7,0.6,7.3,0.8c-0.7-1.1-1.3-2.2-2-3.3C183,130.9,180.7,131.8,179.2,132.6z"/>
			</g>
		</g>
	</g>
</g>
</svg>
