<?xml version="1.0" encoding="utf-8"?>
<!-- Generator: Adobe Illustrator 23.0.1, SVG Export Plug-In . SVG Version: 6.00 Build 0)  -->
<svg version="1.1" id="Warstwa_1" xmlns="http://www.w3.org/2000/svg" xmlns:xlink="http://www.w3.org/1999/xlink" x="0px" y="0px"
	 viewBox="0 0 380 380" style="enable-background:new 0 0 380 380;" xml:space="preserve">
<style type="text/css">
	.st0{fill:#FFFFFF;}
	.st1{fill:#E6F1FF;}
	.st2{fill:#CCDCED;}
	.st3{fill:url(#XMLID_2_);}
	.st4{fill:url(#XMLID_3_);}
	.st5{fill:#9CCC65;}
	.st6{fill:url(#XMLID_4_);}
	.st7{fill:url(#XMLID_5_);}
	.st8{fill:url(#XMLID_6_);}
	.st9{fill:url(#XMLID_7_);}
	.st10{fill:url(#XMLID_8_);}
	.st11{fill:#FFC47D;}
	.st12{fill:#EFA236;}
	.st13{fill:url(#XMLID_9_);}
	.st14{fill:url(#XMLID_10_);}
	.st15{fill:url(#XMLID_11_);}
	.st16{fill:#FFCE55;}
	.st17{fill:url(#XMLID_12_);}
	.st18{fill:#F7D33C;}
	.st19{fill:#BF392E;}
	.st20{fill:url(#XMLID_13_);}
	.st21{fill:url(#XMLID_14_);}
	.st22{fill:url(#XMLID_15_);}
	.st23{fill:url(#XMLID_16_);}
</style>
<g>
	<g>
		<g>
			<circle class="st0" cx="190.8" cy="190.8" r="189.3"/>
		</g>
	</g>
</g>
<g id="XMLID_1508_">
	<g id="XMLID_95_">
		<circle id="XMLID_96_" class="st1" cx="190" cy="190" r="151"/>
		<path id="XMLID_164_" class="st0" d="M40.8,191.8c0-83.4,67.6-151,151-151c41.2,0,78.6,16.5,105.9,43.3
			C270.3,56.3,232.2,39,190,39c-83.4,0-151,67.6-151,151c0,42.2,17.3,80.3,45.1,107.7C57.4,270.4,40.8,233.1,40.8,191.8z"/>
		<path id="XMLID_165_" class="st2" d="M294.8,81.3c26.2,27.2,42.3,64.1,42.3,104.8c0,83.4-67.6,151-151,151
			c-40.7,0-77.7-16.1-104.8-42.3c27.5,28.5,66,46.2,108.7,46.2c83.4,0,151-67.6,151-151C341,147.3,323.3,108.8,294.8,81.3z"/>
	</g>
	<g id="XMLID_1676_">
		<linearGradient id="XMLID_2_" gradientUnits="userSpaceOnUse" x1="163.4717" y1="424.0553" x2="202.5143" y2="-277.5896">
			<stop  offset="0" style="stop-color:#FFFFFF;stop-opacity:0"/>
			<stop  offset="1" style="stop-color:#3D4B5C"/>
		</linearGradient>
		<path id="XMLID_1677_" class="st3" d="M239.7,284.3l-5.3-5.3c0-0.5,0-1,0-1.4c-0.1-0.6-0.1-1.1-0.3-1.7c-0.1-0.3-0.1-0.6-0.2-0.8
			c-0.1-0.2-0.1-0.4-0.2-0.6c-0.1-0.2-0.1-0.3-0.2-0.4c-0.1-0.2-0.2-0.5-0.3-0.7c-0.4-1-1-1.9-1.7-2.7c-0.1-0.2-0.3-0.4-0.4-0.5
			c-0.1-0.1-0.2-0.3-0.3-0.4c-0.2-0.2-0.4-0.4-0.6-0.5c-0.4-0.4-0.9-0.8-1.4-1.1c0,0,0,0-0.1-0.1h0c-0.5-0.3-0.9-0.6-1.4-0.8
			c1.2,0,2.2-0.5,3-1.2c0.1-0.1,0.3-0.3,0.4-0.4c0.2-0.3,0.4-0.6,0.6-0.9c0,0,0,0,0,0c0.2-0.4,0.4-0.9,0.5-1.3
			c0-0.1,0.1-0.2,0.1-0.3c0-0.1,0.1-0.2,0.1-0.3c0.2-0.9,0.3-1.9,0.2-2.9c0-0.1,0-0.1,0-0.2c0-0.6-0.1-1.1-0.2-1.7c0,0,0,0,0,0
			c-0.2-0.6-0.3-1.1-0.5-1.7c-0.1-0.3-0.3-0.6-0.4-0.9c-0.1-0.3-0.3-0.5-0.4-0.7c-0.1-0.2-0.3-0.4-0.4-0.6h0c0,0,0-0.1-0.1-0.1
			c-0.2-0.3-0.4-0.6-0.7-0.8c-0.5-0.6-0.9-1.1-1.4-1.6c-3.1-3.5-6.7-6.8-6.9-11.4c0-0.3,0-0.6,0-0.9c0-0.4,0.1-0.8,0.1-1.2
			c0.1-0.4,0.1-0.9,0.2-1.3c0-0.2,0.1-0.4,0.1-0.6c0-0.2,0.1-0.4,0.1-0.6c0-0.2,0-0.4,0-0.5v-0.1v-0.4c0-0.7-0.1-1.4-0.3-2
			c0-0.2-0.1-0.3-0.2-0.5c-0.1-0.2-0.1-0.3-0.2-0.5c-0.1-0.2-0.2-0.4-0.3-0.5c-0.2-0.3-0.4-0.7-0.6-1c-0.1-0.2-0.2-0.3-0.4-0.5
			c-0.1-0.2-0.2-0.3-0.4-0.5c-0.1-0.2-0.3-0.3-0.4-0.4c-0.2-0.2-0.3-0.3-0.4-0.4c-0.2-0.2-0.3-0.3-0.5-0.4c-0.2-0.1-0.3-0.3-0.5-0.4
			c-0.2-0.1-0.3-0.3-0.5-0.4c-0.2-0.1-0.3-0.2-0.5-0.4c-0.3-0.2-0.5-0.3-0.8-0.5c-1-0.6-2.2-1.1-3.3-1.6c-0.4-0.2-0.7-0.3-1.1-0.4
			c-0.7-0.3-1.4-0.5-2.1-0.7c-0.2-0.1-0.4-0.1-0.6-0.2c-0.3-0.1-0.7-0.2-1-0.3c-0.3-0.1-0.7-0.2-1-0.2c-0.1,0-0.2-0.1-0.3-0.1
			c-0.1,0-0.2-0.1-0.3-0.1c0.2-0.2,0.5-0.5,0.7-0.7c3.9-4.6,2.2-12.7-2.9-16.1c-3.9-2.6-8.9-2.9-13.4-1.6c-1.8,0.5-3.4,1.3-5,2.3h0
			c0.1-0.3,0.1-0.6,0.2-0.8c0-0.1,0.1-0.3,0.1-0.4c0,0,0-0.1,0-0.1c0.1-0.3,0.2-0.7,0.2-1c0.1-0.3,0.1-0.5,0.2-0.8
			c0-0.1,0-0.2,0-0.3c0-0.2,0.1-0.3,0.1-0.5c0-0.2,0.1-0.5,0.1-0.7c0-0.2,0.1-0.4,0.1-0.6c0-0.2,0-0.3,0.1-0.5c0-0.1,0-0.2,0-0.2
			c0.1-0.4,0.1-0.8,0.1-1.3c0-0.1,0-0.1,0-0.2c0,0,0,0,0,0c0-0.6,0-1.2,0-1.8c0-0.3-0.1-0.7-0.1-1c0-0.2,0-0.5-0.1-0.7
			c0,0,0,0,0-0.1c0-0.1,0-0.1,0-0.2c0-0.1,0-0.2-0.1-0.3c0-0.1,0-0.1,0-0.2c-0.1-0.5-0.2-1-0.4-1.5c-0.1-0.2-0.1-0.4-0.2-0.6
			c0,0,0-0.1,0-0.1c-0.1-0.3-0.2-0.5-0.3-0.7c-0.2-0.5-0.5-0.9-0.8-1.3c-0.2-0.3-0.5-0.7-0.8-1c-0.1-0.1-0.2-0.2-0.3-0.4
			c-0.1-0.1-0.1-0.1-0.2-0.2c-0.1-0.1-0.2-0.2-0.4-0.3c0,0-0.1,0-0.1-0.1c-0.2-0.2-0.4-0.3-0.7-0.5c-0.1,0-0.1-0.1-0.2-0.1
			c-0.1-0.1-0.2-0.1-0.3-0.2c-0.1-0.1-0.2-0.1-0.4-0.2c0,0-0.1,0-0.1-0.1c0,0,0,0,0,0c0,0,0,0,0,0c-0.2-0.1-0.4-0.2-0.6-0.2
			c-0.2-0.1-0.3-0.1-0.5-0.2c-0.3-0.1-0.6-0.2-0.9-0.2c-0.2,0-0.3,0-0.5-0.1c-3.5-0.3-6.2,2.2-9.2,3.8c-2.6,1.4-6.5,1.8-8.1-0.8
			c-0.2-0.3-0.4-0.7-0.5-1c-0.2-0.6-0.3-1.1-0.3-1.7c0-0.2-0.1-0.4-0.1-0.6c0-0.4-0.1-0.8-0.2-1.1v0c-0.2-0.9-0.6-1.8-1.1-2.5
			c-0.2-0.3-0.4-0.5-0.6-0.7c-0.2-0.2-0.5-0.4-0.7-0.6c-0.2-0.2-0.5-0.4-0.8-0.5c0,0,0,0-0.1-0.1c-0.3-0.1-0.5-0.3-0.8-0.4
			c0,0,0,0,0,0c-0.3-0.1-0.6-0.2-0.9-0.3c-0.2-0.1-0.3-0.1-0.5-0.1c-0.3-0.1-0.5-0.1-0.8-0.2c-0.2,0-0.4-0.1-0.7-0.1
			c-0.3,0-0.7-0.1-1-0.1c-0.3,0-0.6,0-0.8,0c-0.2,0-0.3,0-0.5,0.1c-0.2,0-0.4,0.1-0.6,0.1c-0.7,0.1-1.4,0.3-2,0.6
			c-0.2,0.1-0.4,0.2-0.6,0.3c-0.5,0.3-1,0.6-1.4,0.9c-0.2,0.2-0.5,0.4-0.6,0.7c-0.4,0.5-0.7,1-1,1.6c-0.1,0.3-0.2,0.6-0.3,0.9
			c-1.1-0.2-1.9-0.7-2.5-1.5c-0.2-0.3-0.4-0.6-0.6-0.9c-1.2-2.2-1.8-5.3-3.5-7.2c-1.7-1.8-4.4-2.2-6.8-1.5c-0.4,0.1-0.8,0.3-1.2,0.4
			c0,0-0.1,0-0.1,0.1l-5.4-5.4c-4.3-4.3-10.5-4.2-14.8-1.3c0,0-0.1,0-0.1,0.1c-0.4,0.3-0.7,0.5-1,0.8c-0.1,0.1-0.1,0.1-0.2,0.2
			c-0.3,0.3-0.6,0.6-0.8,0.9c-0.1,0.1-0.2,0.2-0.3,0.3c-0.2,0.3-0.4,0.6-0.6,0.9c-0.1,0.2-0.2,0.3-0.3,0.5c-0.2,0.3-0.3,0.5-0.5,0.8
			c-0.1,0.2-0.2,0.5-0.3,0.7c-0.1,0.3-0.2,0.5-0.3,0.8c-0.1,0.3-0.2,0.7-0.2,1c0,0.2-0.1,0.4-0.1,0.6c-0.1,0.6-0.1,1.2-0.1,1.8
			v106.4c0,3.5,0.9,6.8,2.4,9.6c3.4,6.3,10.1,10.6,17.8,10.6l0,0h106.4h0c0.6,0,1.2,0,1.8-0.1c0.2,0,0.4-0.1,0.6-0.1
			c0.3-0.1,0.7-0.1,1-0.2c0.3-0.1,0.5-0.2,0.8-0.3c0.2-0.1,0.5-0.2,0.7-0.3c0.3-0.1,0.6-0.3,0.8-0.5c0.2-0.1,0.4-0.2,0.5-0.3
			c0.3-0.2,0.6-0.4,0.9-0.6c0.1-0.1,0.2-0.2,0.3-0.3c0.3-0.3,0.6-0.5,0.9-0.8c0.1-0.1,0.1-0.1,0.2-0.2c0.3-0.3,0.6-0.7,0.8-1
			c0,0,0.1-0.1,0.1-0.1c0.3-0.4,0.5-0.8,0.7-1.2l0,0l0,0C243.9,293.7,243.6,288.2,239.7,284.3z"/>
		<linearGradient id="XMLID_3_" gradientUnits="userSpaceOnUse" x1="212.8828" y1="426.1117" x2="251.9254" y2="-275.5336">
			<stop  offset="0" style="stop-color:#FFFFFF;stop-opacity:0"/>
			<stop  offset="1" style="stop-color:#3D4B5C"/>
		</linearGradient>
		<path id="XMLID_1680_" class="st4" d="M319.3,210.4L191.3,82.4c-2.7-2.7-7.1-2.7-9.8,0l-6.6,6.6c-2.7,2.7-2.7,7.1,0,9.8l0.9,0.9
			c-1.8,1.1-0.7,5.5,0,7.3c0.1,0.3,0.2,0.6,0.3,0.8c-0.1,0-0.1-0.1-0.2-0.1c-0.8-0.4-1.6-0.7-2.5-0.5c-3.1,0.6-2.8,7-3.1,9.3
			c-0.4,2.5-0.3,4.8,0.3,6.9l-5.7-4.3c-2.2-1.7-5.4-1.2-7,1c-0.3,0.4-0.5,0.9-0.7,1.3c-0.1-0.1-0.3-0.1-0.4-0.2
			c-2.5-0.9-3.3,0.4-3.4,2.2L151,121c-2.7-2.7-7.1-2.7-9.8,0l-6.6,6.6c-2.7,2.7-2.7,7.1,0,9.8l128.1,128.1c2.7,2.7,7.1,2.7,9.8,0
			l6.6-6.6c2.7-2.7,2.7-7.1,0-9.8l-1.7-1.7c0.9,0,1.8-0.3,2.6-0.9l0,0c2.3-1.6,2.9-4.7,1.3-7l-8.4-12.1c2.5,2,5,3.9,7.5,5.9
			c2.8,2.2,6.5,4.6,9.8,3.2c1.7-0.7,2.9-2.4,3.6-4.2c0.8-2.5,0.6-5.1-0.2-7.6c0.5,0.5,1,1,1.4,1.6c1,1.5,3.4,1.3,3.9-0.5
			c0.2-0.9,0.3-1.8,0.2-2.8l3.9,3.9c2.7,2.7,7.1,2.7,9.8,0l6.6-6.6C322.1,217.6,322.1,213.2,319.3,210.4z"/>
	</g>
	<g id="XMLID_1577_">
		<g id="XMLID_1402_">
			<g id="XMLID_1380_">
				<path id="XMLID_1609_" class="st5" d="M223.5,264.1c-0.1,0.3-0.1,0.7-0.2,1c-0.1,0.3-0.2,0.6-0.3,0.9c-0.6,1.8-1.7,3.5-3.1,4.9
					c-0.4,0.3-0.7,0.7-1.1,1c-0.4,0.3-0.8,0.6-1.2,0.8c-0.8,0.5-1.7,0.9-2.7,1.2c-0.6,0.2-1.3,0.3-1.9,0.4c-0.1,0-0.1,0-0.2,0
					c-0.1,0-0.1,0-0.2,0c-0.2,0-0.4,0-0.6,0.1c-0.3,0-0.6,0-1,0c-0.2,0-0.5,0-0.7,0c-0.6,0-1.2-0.1-1.7-0.1
					c-2.8-0.2-5.5-0.6-8.1,0.4c-0.6,0.2-1.2,0.5-1.7,0.8c-0.4,0.3-0.8,0.6-1.2,0.9h-84.6V165.8c1-2,2.1-3.8,3.6-5.3
					c0.2-0.2,0.3-0.3,0.5-0.5c0.2-0.1,0.3-0.3,0.5-0.4c0.3-0.2,0.6-0.4,0.9-0.6c0.3-0.2,0.6-0.4,1-0.5c0.4-0.2,0.8-0.3,1.2-0.4
					c2.5-0.7,5.2-0.3,6.8,1.5c1.7,1.9,2.3,5,3.5,7.2c0.2,0.3,0.4,0.7,0.6,0.9c0.6,0.8,1.4,1.4,2.5,1.5c0.1-0.3,0.2-0.6,0.3-0.9
					c0.2-0.6,0.6-1.1,1-1.6c0.2-0.2,0.4-0.5,0.6-0.7c0.4-0.4,0.9-0.7,1.4-0.9c0.2-0.1,0.4-0.2,0.6-0.3c0.6-0.3,1.3-0.5,2-0.6
					c0.2-0.1,0.4-0.1,0.6-0.1c0.2,0,0.3,0,0.5-0.1c0.3,0,0.6,0,0.8,0c0.3,0,0.7,0,1,0.1c0.2,0,0.5,0.1,0.7,0.1
					c0.3,0.1,0.6,0.1,0.8,0.2c0.2,0,0.4,0.1,0.5,0.1c0.3,0.1,0.6,0.2,0.9,0.3c0,0,0,0,0,0c0.3,0.1,0.5,0.3,0.8,0.4
					c0,0,0.1,0,0.1,0.1c0.3,0.2,0.5,0.3,0.8,0.5c0.3,0.2,0.5,0.4,0.7,0.6c0.2,0.2,0.4,0.5,0.6,0.7c0.6,0.7,0.9,1.5,1.1,2.5v0
					c0.1,0.4,0.1,0.8,0.2,1.1c0,0.2,0,0.4,0.1,0.6c0.1,0.6,0.2,1.2,0.3,1.7c0.1,0.4,0.3,0.7,0.5,1c1.6,2.6,5.5,2.2,8.1,0.8
					c3-1.6,5.6-4.2,9.2-3.8c0.2,0,0.3,0,0.5,0.1c0.3,0.1,0.6,0.1,0.9,0.2c0.2,0,0.3,0.1,0.5,0.2c0.2,0.1,0.4,0.2,0.6,0.2
					c0.2,0.1,0.3,0.2,0.5,0.3c0.1,0,0.2,0.1,0.3,0.2c0.3,0.2,0.6,0.4,0.9,0.7c0.1,0.1,0.3,0.2,0.4,0.3c0.5,0.5,1,1,1.3,1.5
					c0.3,0.4,0.6,0.9,0.8,1.3c0.1,0.3,0.2,0.5,0.3,0.7c0,0.1,0,0.1,0,0.1c0.1,0.2,0.2,0.4,0.2,0.6c0.2,0.5,0.3,1,0.4,1.5
					c0,0.1,0,0.1,0,0.2c0.1,0.2,0.1,0.4,0.1,0.6c0.2,1.2,0.2,2.5,0.1,3.7c0,0.4-0.1,0.9-0.1,1.3c-0.1,0.4-0.1,0.9-0.2,1.3
					c-0.1,0.5-0.2,1-0.3,1.4c-0.1,0.5-0.2,1.1-0.4,1.6c0,0.1-0.1,0.3-0.1,0.4c-0.1,0.4-0.2,0.8-0.3,1.2c0,0,0,0,0,0h0
					c1.5-1,3.2-1.7,5-2.3c4.5-1.4,9.5-1.1,13.4,1.6c5.1,3.5,6.8,11.5,2.9,16.1c-0.2,0.2-0.4,0.5-0.7,0.7h0v0c0.1,0,0.2,0.1,0.3,0.1
					c0.1,0,0.2,0.1,0.3,0.1c0.3,0.1,0.7,0.2,1,0.2c0.3,0.1,0.7,0.2,1,0.3c0.2,0.1,0.4,0.1,0.6,0.2c0.7,0.2,1.4,0.4,2.1,0.7
					c0.4,0.1,0.7,0.3,1.1,0.4c1.2,0.5,2.3,1,3.3,1.6c0.3,0.2,0.5,0.3,0.8,0.5c0.2,0.1,0.4,0.2,0.5,0.4c0.2,0.1,0.3,0.3,0.5,0.4
					c0.2,0.1,0.3,0.3,0.5,0.4c0.2,0.1,0.3,0.3,0.5,0.4c0.2,0.1,0.3,0.3,0.4,0.4c0.1,0.1,0.3,0.3,0.4,0.4c0.1,0.2,0.3,0.3,0.4,0.5
					c0.1,0.2,0.2,0.3,0.4,0.5c0.2,0.3,0.4,0.7,0.6,1c0.1,0.2,0.2,0.4,0.3,0.5c0.1,0.2,0.1,0.3,0.2,0.5c0.1,0.2,0.1,0.3,0.2,0.5
					c0.2,0.6,0.3,1.3,0.3,2v0.5c0,0.2,0,0.4,0,0.5c0,0.2,0,0.4-0.1,0.6c0,0.2,0,0.4-0.1,0.6c-0.1,0.4-0.1,0.9-0.2,1.3
					c-0.1,0.4-0.1,0.8-0.1,1.2c0,0.3,0,0.6,0,0.9c0.1,4.6,3.7,7.9,6.9,11.4c0.5,0.5,1,1.1,1.4,1.6c0.2,0.3,0.4,0.6,0.7,0.8
					c0,0,0,0.1,0.1,0.1c0.2,0.2,0.3,0.4,0.4,0.6c0.2,0.2,0.3,0.5,0.4,0.7c0.2,0.3,0.3,0.6,0.4,0.9c0.2,0.6,0.4,1.1,0.5,1.7
					c0,0,0,0,0,0c0.4,1.6,0.4,3.3,0.1,4.8c-0.1,0.7-0.4,1.3-0.7,1.9c0,0,0,0,0,0c-0.2,0.3-0.4,0.6-0.6,0.9c-0.1,0.1-0.2,0.3-0.4,0.4
					c-0.7,0.7-1.7,1.2-3,1.2c0.5,0.3,1,0.5,1.4,0.8h0c0,0,0,0,0.1,0.1c0.5,0.3,0.9,0.7,1.4,1.1c0.2,0.2,0.4,0.4,0.6,0.5
					c0.1,0.1,0.2,0.2,0.3,0.4c0.2,0.2,0.3,0.3,0.4,0.5c0.7,0.8,1.2,1.7,1.7,2.7c0.1,0.2,0.2,0.5,0.3,0.7c0.1,0.1,0.1,0.3,0.2,0.4
					c0.1,0.2,0.1,0.4,0.2,0.6c0.1,0.3,0.2,0.6,0.2,0.8c0.1,0.6,0.2,1.1,0.3,1.7C223.7,262.4,223.6,263.2,223.5,264.1z"/>
				<linearGradient id="XMLID_4_" gradientUnits="userSpaceOnUse" x1="176.9653" y1="137.0242" x2="165.8731" y2="235.7976">
					<stop  offset="0" style="stop-color:#FFFFFF;stop-opacity:0"/>
					<stop  offset="1" style="stop-color:#9CCC65"/>
				</linearGradient>
				<path id="XMLID_1599_" class="st6" d="M223.5,264.1c-0.1,0.3-0.1,0.6-0.2,1c-0.1,0.3-0.2,0.6-0.3,0.9c-0.6,1.8-1.7,3.5-3.1,4.9
					c-0.4,0.3-0.7,0.7-1.1,1c-0.4,0.3-0.8,0.6-1.2,0.8c-0.8,0.5-1.7,0.9-2.7,1.2c-0.6,0.2-1.3,0.4-1.9,0.4h-0.2c-0.1,0-0.1,0-0.2,0
					c-0.2,0-0.4,0-0.6,0.1c-0.3,0-0.6,0-1,0c-0.2,0-0.5,0-0.7,0c-0.6,0-1.2-0.1-1.7-0.1c-2.8-0.2-5.5-0.6-8.1,0.4
					c-0.6,0.2-1.2,0.5-1.7,0.8c-0.4,0.3-0.8,0.6-1.2,0.9h-84.6V165.8c1-2,2.1-3.8,3.6-5.3c0.2-0.2,0.3-0.3,0.5-0.5
					c0.2-0.2,0.3-0.3,0.5-0.4c0.3-0.2,0.6-0.4,0.9-0.6c0.3-0.2,0.6-0.4,1-0.5c0.4-0.2,0.8-0.3,1.2-0.4c2.5-0.7,5.2-0.3,6.8,1.5
					c1.7,1.9,2.3,5,3.5,7.2c0.2,0.3,0.4,0.7,0.6,0.9c0.6,0.8,1.4,1.4,2.5,1.5h0c0.1-0.3,0.2-0.6,0.3-0.9c0.3-0.6,0.6-1.1,1-1.6
					c0.2-0.2,0.4-0.5,0.6-0.7c0.4-0.4,0.9-0.7,1.4-0.9c0.2-0.1,0.4-0.2,0.6-0.3c0.6-0.3,1.3-0.5,2-0.6c0.2-0.1,0.4-0.1,0.6-0.1
					c0.2,0,0.3,0,0.5-0.1c0.3,0,0.6,0,0.8,0c0.3,0,0.7,0,1,0.1c0.2,0,0.5,0.1,0.7,0.1c0.3,0.1,0.6,0.1,0.8,0.2
					c0.2,0,0.4,0.1,0.5,0.1c0.3,0.1,0.6,0.2,0.9,0.3c0,0,0,0,0,0c0.3,0.1,0.5,0.3,0.8,0.4c0,0,0.1,0,0.1,0.1
					c0.3,0.2,0.5,0.3,0.8,0.5c0.3,0.2,0.5,0.4,0.7,0.6c0.2,0.2,0.4,0.5,0.6,0.7c0.5,0.7,0.9,1.5,1.1,2.5v0c0.1,0.4,0.1,0.8,0.2,1.1
					c0,0.2,0,0.4,0.1,0.6c0.1,0.6,0.2,1.2,0.3,1.7c0.1,0.4,0.3,0.7,0.5,1c1.6,2.6,5.5,2.2,8.1,0.8c3-1.6,5.6-4.2,9.2-3.8
					c0.2,0,0.3,0,0.5,0.1c0.3,0.1,0.6,0.1,0.9,0.2c0.2,0.1,0.3,0.1,0.5,0.2c0.2,0.1,0.4,0.1,0.6,0.2c0.2,0.1,0.3,0.2,0.5,0.3
					c0.1,0,0.2,0.1,0.3,0.2c0.3,0.2,0.6,0.4,0.9,0.7c0.1,0.1,0.3,0.2,0.4,0.3c0.5,0.5,1,1,1.3,1.5c0.3,0.4,0.5,0.9,0.8,1.3
					c0.1,0.3,0.2,0.5,0.3,0.7c0,0.1,0,0.1,0,0.1c0.1,0.2,0.1,0.3,0.2,0.4c0.1,0.3,0.2,0.5,0.2,0.7c0.1,0.3,0.2,0.7,0.2,1
					c0,0.1,0,0.1,0,0.2c0.1,0.2,0.1,0.4,0.1,0.6c0.2,1.2,0.2,2.5,0.1,3.7c0,0.4-0.1,0.9-0.1,1.3c-0.1,0.4-0.1,0.9-0.2,1.3
					c-0.1,0.5-0.2,1-0.3,1.4c-0.1,0.5-0.2,1.1-0.4,1.6c0,0.1-0.1,0.3-0.1,0.4c-0.1,0.4-0.2,0.8-0.3,1.2c0,0,0,0,0,0c0,0,0,0,0,0
					c1.5-1,3.2-1.7,5-2.3c4.5-1.4,9.5-1.1,13.4,1.6c5.1,3.5,6.8,11.5,2.9,16.1c-0.2,0.2-0.4,0.5-0.7,0.7h0c0.1,0,0.2,0.1,0.3,0.1
					c0.1,0,0.2,0,0.3,0.1c0.3,0.1,0.7,0.2,1,0.2c0.3,0.1,0.7,0.2,1,0.3c0.2,0.1,0.4,0.1,0.6,0.2c0.7,0.2,1.4,0.4,2.1,0.7
					c0.4,0.1,0.7,0.3,1.1,0.4c1.2,0.5,2.3,1,3.3,1.6c0.3,0.2,0.5,0.3,0.8,0.5c0.2,0.1,0.4,0.2,0.5,0.4c0.2,0.1,0.3,0.3,0.5,0.4
					c0.2,0.1,0.3,0.3,0.5,0.4c0.2,0.1,0.3,0.3,0.5,0.4c0.2,0.1,0.3,0.3,0.4,0.4c0.1,0.1,0.3,0.3,0.4,0.4c0.1,0.2,0.3,0.3,0.4,0.5
					c0.1,0.2,0.2,0.3,0.4,0.5c0.2,0.3,0.4,0.7,0.6,1c0.1,0.2,0.2,0.4,0.3,0.5c0.1,0.2,0.1,0.3,0.2,0.5c0.1,0.2,0.1,0.3,0.2,0.5
					c0.2,0.6,0.3,1.3,0.3,2v0.5c0,0.2,0,0.4,0,0.5c0,0.2,0,0.4-0.1,0.6c0,0.2,0,0.4-0.1,0.6c-0.1,0.4-0.1,0.9-0.2,1.3
					c-0.1,0.4-0.1,0.8-0.1,1.2c0,0.3,0,0.6,0,0.9c0.1,4.6,3.7,7.9,6.9,11.4c0.5,0.5,1,1.1,1.4,1.6c0.2,0.3,0.4,0.6,0.7,0.8
					c0,0,0,0.1,0.1,0.1h0c0.2,0.2,0.3,0.4,0.4,0.6c0.2,0.2,0.3,0.5,0.4,0.7c0.2,0.3,0.3,0.6,0.4,0.9c0.2,0.6,0.4,1.1,0.5,1.7
					c0,0,0,0,0,0c0.4,1.6,0.4,3.3,0.1,4.8c-0.2,0.7-0.4,1.3-0.7,1.9c0,0,0,0,0,0c-0.2,0.3-0.4,0.6-0.6,0.9c-0.1,0.1-0.2,0.3-0.4,0.4
					c-0.7,0.7-1.7,1.2-3,1.2c0.5,0.3,1,0.5,1.4,0.8h0c0,0,0,0,0.1,0.1c0.5,0.3,0.9,0.7,1.4,1.1c0.2,0.2,0.4,0.4,0.6,0.5
					c0.1,0.1,0.2,0.2,0.3,0.4c0.2,0.2,0.3,0.3,0.4,0.5c0.7,0.8,1.2,1.7,1.7,2.7c0.1,0.2,0.2,0.5,0.3,0.7c0.1,0.1,0.1,0.3,0.2,0.4
					c0.1,0.2,0.1,0.4,0.2,0.6c0.1,0.3,0.2,0.6,0.2,0.8c0.1,0.6,0.2,1.1,0.3,1.7C223.7,262.3,223.6,263.2,223.5,264.1z"/>
				<linearGradient id="XMLID_5_" gradientUnits="userSpaceOnUse" x1="93.2149" y1="108.3167" x2="160.9509" y2="281.4199">
					<stop  offset="0" style="stop-color:#FFFFFF;stop-opacity:0"/>
					<stop  offset="1" style="stop-color:#9CCC65"/>
				</linearGradient>
				<path id="XMLID_1586_" class="st7" d="M148.9,167.1c-6.7,19-18.5,36.7-27,54.9c-3.1,6.7-6.1,13.4-9,20.1v-20.8
					c7.7-18.4,15.5-36.9,23.2-55.3c0.4-0.4,0.9-0.7,1.4-0.9c0.2-0.1,0.4-0.2,0.6-0.3c0.6-0.3,1.3-0.5,2-0.6c0.2-0.1,0.4-0.1,0.6-0.1
					c0.2,0,0.3,0,0.5-0.1c0.3,0,0.6,0,0.8,0c0.3,0,0.7,0,1,0.1c0.2,0,0.5,0.1,0.7,0.1c0.3,0.1,0.6,0.1,0.8,0.2
					c0.2,0,0.4,0.1,0.5,0.1c0.3,0.1,0.6,0.2,0.9,0.3c0,0,0,0,0,0c0.3,0.1,0.5,0.3,0.8,0.4c0,0,0.1,0,0.1,0.1
					c0.3,0.2,0.5,0.3,0.8,0.5c0.3,0.2,0.5,0.4,0.7,0.6C148.5,166.6,148.7,166.9,148.9,167.1z"/>
				<linearGradient id="XMLID_6_" gradientUnits="userSpaceOnUse" x1="198.7858" y1="143.7008" x2="149.2612" y2="284.2123">
					<stop  offset="0" style="stop-color:#FFFFFF;stop-opacity:0"/>
					<stop  offset="1" style="stop-color:#9CCC65"/>
				</linearGradient>
				<path id="XMLID_1578_" class="st8" d="M210.9,218.3v0.4c-27.5,13.8-53.4,30.7-77.2,50.3c-3.2,2.6-6.7,5.4-10.4,7.3h-10
					c5.3-6.8,12.2-12.3,19.1-17.6c15.4-11.9,30.7-23.8,46.1-35.8c6.3-4.9,12.8-9.9,17.5-16.3l0,0c0.3,0.1,0.7,0.2,1,0.2
					c0.3,0.1,0.7,0.2,1,0.3c0.2,0.1,0.4,0.1,0.6,0.2c0.7,0.2,1.4,0.4,2.1,0.7c0.4,0.1,0.7,0.3,1.1,0.4c1.2,0.5,2.3,1,3.3,1.6
					c0.3,0.2,0.5,0.3,0.8,0.5c0.2,0.1,0.4,0.2,0.5,0.4c0.2,0.1,0.3,0.3,0.5,0.4c0.2,0.1,0.3,0.3,0.5,0.4c0.2,0.1,0.3,0.3,0.5,0.4
					c0.2,0.1,0.3,0.3,0.4,0.4c0.1,0.1,0.3,0.3,0.4,0.4c0.1,0.2,0.3,0.3,0.4,0.5c0.1,0.2,0.2,0.3,0.4,0.5c0.2,0.3,0.4,0.7,0.6,1
					c0.1,0.2,0.2,0.4,0.3,0.5c0.1,0.2,0.1,0.3,0.2,0.5c0.1,0.2,0.1,0.3,0.2,0.5C210.8,217,210.9,217.6,210.9,218.3z"/>
				
					<linearGradient id="XMLID_7_" gradientUnits="userSpaceOnUse" x1="698.0731" y1="510.913" x2="698.0731" y2="635.1053" gradientTransform="matrix(0.8841 0.4674 -0.4674 0.8841 -182.9973 -646.5046)">
					<stop  offset="0" style="stop-color:#FFFFFF;stop-opacity:0"/>
					<stop  offset="1" style="stop-color:#9CCC65"/>
				</linearGradient>
				<path id="XMLID_1382_" class="st9" d="M174.8,190.5c-4,4.6-7.9,9.3-11.8,14c-8.6,10.3-17,20.7-25.2,31.3
					c-7.1,9.2-23.2,43.7-24.1,32.1c-0.6-7.8,37-57.4,52.7-87.8c1.5-2.8,2.9-5.7,4.3-8.6c1.8,0.8,3.3,2.4,4.1,4.2
					C177.1,180.6,175.9,185.7,174.8,190.5z"/>
				<linearGradient id="XMLID_8_" gradientUnits="userSpaceOnUse" x1="230.7318" y1="308.2676" x2="143.8222" y2="221.358">
					<stop  offset="0" style="stop-color:#FFFFFF;stop-opacity:0"/>
					<stop  offset="1" style="stop-color:#9CCC65"/>
				</linearGradient>
				<path id="XMLID_1585_" class="st10" d="M220.5,248.7C220.5,248.7,220.5,248.7,220.5,248.7c-0.2,0.3-0.4,0.6-0.6,0.9
					c-0.1,0.1-0.2,0.3-0.4,0.4c-0.7,0.7-1.7,1.2-3,1.2c0.5,0.3,1,0.5,1.4,0.8c-22,7-43.6,15.1-64.7,24.4h-13.5
					c17.8-9.1,35.6-18.1,53.4-26.9c8.5-4.2,17.1-8.5,26.1-11.5h0c0.2,0.2,0.3,0.4,0.4,0.6c0.2,0.2,0.3,0.5,0.4,0.7
					c0.2,0.3,0.3,0.6,0.4,0.9c0.2,0.6,0.4,1.1,0.5,1.7c0,0,0,0,0,0C221.7,244.3,221.5,246.9,220.5,248.7z"/>
			</g>
			<path id="XMLID_1371_" class="st11" d="M113.9,153.2l115.1,115.1c7.3,7.3,2.1,19.7-8.2,19.7H114.4c-11.2,0-20.2-9.1-20.2-20.2
				V161.3C94.2,151,106.6,145.9,113.9,153.2z"/>
			<path id="XMLID_1369_" class="st12" d="M114.4,287.9h106.4c4.7,0,8.3-2.6,10.2-6.2c-1.5,0.8-3.3,1.2-5.3,1.2H119.3
				c-11.2,0-20.2-9.1-20.2-20.2V156.4c0-2,0.5-3.7,1.2-5.3c-3.5,1.9-6.2,5.5-6.2,10.2v106.4C94.2,278.9,103.2,287.9,114.4,287.9z"/>
			<g id="XMLID_1147_">
				<path id="XMLID_1229_" class="st12" d="M200.2,276.1c0-1.3,1-2.3,2.3-2.3c1.3,0,2.3,1,2.3,2.3c0,1.3-1,2.3-2.3,2.3
					C201.2,278.4,200.2,277.4,200.2,276.1z"/>
				<path id="XMLID_1228_" class="st12" d="M202.5,258.8c0-1.3,1-2.3,2.3-2.3s2.3,1,2.3,2.3s-1,2.3-2.3,2.3S202.5,260.1,202.5,258.8
					z"/>
				<path id="XMLID_1227_" class="st12" d="M105.3,221.8c0-1.3,1-2.3,2.3-2.3c1.3,0,2.3,1,2.3,2.3s-1,2.3-2.3,2.3
					C106.3,224.1,105.3,223.1,105.3,221.8z"/>
				<path id="XMLID_1226_" class="st12" d="M115.7,193c0-1.3,1-2.3,2.3-2.3c1.3,0,2.3,1,2.3,2.3c0,1.3-1,2.3-2.3,2.3
					C116.8,195.2,115.7,194.2,115.7,193z"/>
				<path id="XMLID_1225_" class="st12" d="M103,169.4c0-1.3,1-2.3,2.3-2.3s2.3,1,2.3,2.3s-1,2.3-2.3,2.3S103,170.7,103,169.4z"/>
				<path id="XMLID_1224_" class="st12" d="M151.1,201.8c0-1.3,1-2.3,2.3-2.3c1.3,0,2.3,1,2.3,2.3s-1,2.3-2.3,2.3
					C152.1,204.1,151.1,203.1,151.1,201.8z"/>
				<path id="XMLID_1405_" class="st12" d="M148.8,234.3c0-1.3,1-2.3,2.3-2.3s2.3,1,2.3,2.3c0,1.3-1,2.3-2.3,2.3
					S148.8,235.5,148.8,234.3z"/>
				<path id="XMLID_1223_" class="st12" d="M182.4,236.6c0-1.3,1-2.3,2.3-2.3s2.3,1,2.3,2.3c0,1.3-1,2.3-2.3,2.3
					S182.4,237.8,182.4,236.6z"/>
				<path id="XMLID_1222_" class="st12" d="M187,256.5c0-0.7,0.6-1.3,1.3-1.3s1.3,0.6,1.3,1.3c0,0.7-0.6,1.3-1.3,1.3
					S187,257.2,187,256.5z"/>
				<path id="XMLID_1221_" class="st12" d="M168.8,217.6c0-0.7,0.6-1.3,1.3-1.3c0.7,0,1.3,0.6,1.3,1.3c0,0.7-0.6,1.3-1.3,1.3
					C169.4,218.9,168.8,218.3,168.8,217.6z"/>
				<path id="XMLID_1220_" class="st12" d="M102.1,231.6c0-0.7,0.6-1.3,1.3-1.3c0.7,0,1.3,0.6,1.3,1.3c0,0.7-0.6,1.3-1.3,1.3
					C102.7,232.9,102.1,232.3,102.1,231.6z"/>
				<path id="XMLID_1219_" class="st12" d="M107.3,273.2c0-0.7,0.6-1.3,1.3-1.3c0.7,0,1.3,0.6,1.3,1.3s-0.6,1.3-1.3,1.3
					C107.9,274.5,107.3,273.9,107.3,273.2z"/>
				<path id="XMLID_1218_" class="st12" d="M111.7,163.9c0-0.7,0.6-1.3,1.3-1.3c0.7,0,1.3,0.6,1.3,1.3s-0.6,1.3-1.3,1.3
					C112.3,165.2,111.7,164.6,111.7,163.9z"/>
				<path id="XMLID_1217_" class="st12" d="M136.1,277.3c0-0.7,0.6-1.3,1.3-1.3c0.7,0,1.3,0.6,1.3,1.3s-0.6,1.3-1.3,1.3
					C136.7,278.6,136.1,278.1,136.1,277.3z"/>
				<path id="XMLID_1159_" class="st12" d="M108.6,183.5c0-0.7,0.6-1.3,1.3-1.3c0.7,0,1.3,0.6,1.3,1.3c0,0.7-0.6,1.3-1.3,1.3
					C109.1,184.8,108.6,184.2,108.6,183.5z"/>
				<path id="XMLID_1158_" class="st12" d="M137.4,193c0-0.7,0.6-1.3,1.3-1.3s1.3,0.6,1.3,1.3s-0.6,1.3-1.3,1.3
					S137.4,193.7,137.4,193z"/>
				<circle id="XMLID_1157_" class="st12" cx="147.2" cy="204.1" r="1.3"/>
				<path id="XMLID_1404_" class="st12" d="M143.3,230.3c0-0.7,0.6-1.3,1.3-1.3s1.3,0.6,1.3,1.3c0,0.7-0.6,1.3-1.3,1.3
					S143.3,231,143.3,230.3z"/>
				<path id="XMLID_1156_" class="st12" d="M110.4,216.3c0-0.7,0.6-1.3,1.3-1.3c0.7,0,1.3,0.6,1.3,1.3s-0.6,1.3-1.3,1.3
					C111,217.6,110.4,217,110.4,216.3z"/>
				<circle id="XMLID_1155_" class="st12" cx="103.4" cy="189.4" r="1.3"/>
				<path id="XMLID_1154_" class="st12" d="M116.2,173c0-0.7,0.6-1.3,1.3-1.3c0.7,0,1.3,0.6,1.3,1.3c0,0.7-0.6,1.3-1.3,1.3
					C116.8,174.3,116.2,173.7,116.2,173z"/>
				<path id="XMLID_1153_" class="st12" d="M215.4,273.2c0-0.7,0.6-1.3,1.3-1.3s1.3,0.6,1.3,1.3s-0.6,1.3-1.3,1.3
					S215.4,273.9,215.4,273.2z"/>
				<path id="XMLID_1152_" class="st12" d="M168.8,240.1c0-0.7,0.6-1.3,1.3-1.3c0.7,0,1.3,0.6,1.3,1.3c0,0.7-0.6,1.3-1.3,1.3
					C169.4,241.4,168.8,240.8,168.8,240.1z"/>
				<path id="XMLID_1406_" class="st12" d="M134.8,246.2c0-0.7,0.6-1.3,1.3-1.3c0.7,0,1.3,0.6,1.3,1.3c0,0.7-0.6,1.3-1.3,1.3
					C135.4,247.5,134.8,246.9,134.8,246.2z"/>
				<path id="XMLID_1407_" class="st12" d="M128.9,218.3c0-0.7,0.6-1.3,1.3-1.3s1.3,0.6,1.3,1.3s-0.6,1.3-1.3,1.3
					S128.9,219,128.9,218.3z"/>
				<path id="XMLID_1408_" class="st12" d="M160,259.3c0-0.7,0.6-1.3,1.3-1.3s1.3,0.6,1.3,1.3c0,0.7-0.6,1.3-1.3,1.3
					S160,260,160,259.3z"/>
				<circle id="XMLID_1151_" class="st12" cx="191.2" cy="273.2" r="2.9"/>
				<circle id="XMLID_1150_" class="st12" cx="107.6" cy="241.4" r="2.9"/>
				<circle id="XMLID_1149_" class="st12" cx="120.3" cy="274.5" r="2.9"/>
			</g>
			<linearGradient id="XMLID_9_" gradientUnits="userSpaceOnUse" x1="163.2584" y1="169.5653" x2="163.2584" y2="314.3324">
				<stop  offset="0" style="stop-color:#FFFFFF;stop-opacity:0"/>
				<stop  offset="1" style="stop-color:#F9D1A0"/>
			</linearGradient>
			<path id="XMLID_1426_" class="st13" d="M113.9,153.2l115.1,115.1c7.3,7.3,2.1,19.7-8.2,19.7H114.4c-11.2,0-20.2-9.1-20.2-20.2
				V161.3C94.2,151,106.6,145.9,113.9,153.2z"/>
		</g>
		<g id="XMLID_1573_">
			<g id="XMLID_1554_">
				<path id="XMLID_1572_" class="st11" d="M318.1,203.3l-10.6,10.6c-1.6,1.6-4.3,1.6-5.9,0l-132-132c-1.6-1.6-1.6-4.3,0-5.9
					l10.6-10.6c1.6-1.6,4.3-1.6,5.9,0l132,132C319.7,199.1,319.7,201.7,318.1,203.3z"/>
				<g id="XMLID_1556_">
					<path id="XMLID_1571_" class="st12" d="M192.9,82.1c0-1.3,1-2.3,2.3-2.3c1.3,0,2.3,1,2.3,2.3s-1,2.3-2.3,2.3
						C193.9,84.4,192.9,83.4,192.9,82.1z"/>
					<path id="XMLID_1570_" class="st12" d="M258.5,160.6c0-1.3,1-2.3,2.3-2.3c1.3,0,2.3,1,2.3,2.3s-1,2.3-2.3,2.3
						C259.5,162.9,258.5,161.9,258.5,160.6z"/>
					<path id="XMLID_1569_" class="st12" d="M279.1,171.8c0-1.3,1-2.3,2.3-2.3s2.3,1,2.3,2.3c0,1.3-1,2.3-2.3,2.3
						S279.1,173,279.1,171.8z"/>
					<path id="XMLID_1568_" class="st12" d="M300.6,198c0-1.3,1-2.3,2.3-2.3c1.3,0,2.3,1,2.3,2.3s-1,2.3-2.3,2.3
						C301.6,200.3,300.6,199.2,300.6,198z"/>
					<path id="XMLID_1567_" class="st12" d="M221.5,113.8c0-1.3,1-2.3,2.3-2.3s2.3,1,2.3,2.3c0,1.3-1,2.3-2.3,2.3
						S221.5,115.1,221.5,113.8z"/>
					<path id="XMLID_1566_" class="st12" d="M187.4,78.2c0-0.7,0.6-1.3,1.3-1.3s1.3,0.6,1.3,1.3c0,0.7-0.6,1.3-1.3,1.3
						S187.4,78.9,187.4,78.2z"/>
					<path id="XMLID_1565_" class="st12" d="M191.1,94.4c0-0.7,0.6-1.3,1.3-1.3c0.7,0,1.3,0.6,1.3,1.3c0,0.7-0.6,1.3-1.3,1.3
						C191.7,95.7,191.1,95.1,191.1,94.4z"/>
					<path id="XMLID_1564_" class="st12" d="M214.3,107.3c0-0.7,0.6-1.3,1.3-1.3s1.3,0.6,1.3,1.3c0,0.7-0.6,1.3-1.3,1.3
						S214.3,108,214.3,107.3z"/>
					<path id="XMLID_1563_" class="st12" d="M230.5,133.5c0-0.7,0.6-1.3,1.3-1.3c0.7,0,1.3,0.6,1.3,1.3s-0.6,1.3-1.3,1.3
						C231.1,134.8,230.5,134.2,230.5,133.5z"/>
					<path id="XMLID_1562_" class="st12" d="M246.1,139.4c0-0.7,0.6-1.3,1.3-1.3c0.7,0,1.3,0.6,1.3,1.3s-0.6,1.3-1.3,1.3
						C246.7,140.7,246.1,140.1,246.1,139.4z"/>
					<path id="XMLID_1561_" class="st12" d="M246.1,147.3c0-0.7,0.6-1.3,1.3-1.3c0.7,0,1.3,0.6,1.3,1.3c0,0.7-0.6,1.3-1.3,1.3
						C246.7,148.6,246.1,148,246.1,147.3z"/>
					<circle id="XMLID_1560_" class="st12" cx="269.1" cy="154.4" r="1.3"/>
					<path id="XMLID_1559_" class="st12" d="M273.4,170.5c0-0.7,0.6-1.3,1.3-1.3s1.3,0.6,1.3,1.3c0,0.7-0.6,1.3-1.3,1.3
						S273.4,171.2,273.4,170.5z"/>
					<path id="XMLID_1558_" class="st12" d="M282.4,186c0-0.7,0.6-1.3,1.3-1.3s1.3,0.6,1.3,1.3s-0.6,1.3-1.3,1.3
						S282.4,186.7,282.4,186z"/>
					<path id="XMLID_1557_" class="st12" d="M293.2,186c0-0.7,0.6-1.3,1.3-1.3s1.3,0.6,1.3,1.3s-0.6,1.3-1.3,1.3
						S293.2,186.7,293.2,186z"/>
				</g>
				<linearGradient id="XMLID_10_" gradientUnits="userSpaceOnUse" x1="168.3547" y1="139.6785" x2="319.2955" y2="139.6785">
					<stop  offset="0" style="stop-color:#FFFFFF;stop-opacity:0"/>
					<stop  offset="1" style="stop-color:#F9D1A0"/>
				</linearGradient>
				<path id="XMLID_1555_" class="st14" d="M318.1,203.3l-10.6,10.6c-1.6,1.6-4.3,1.6-5.9,0l-132-132c-1.6-1.6-1.6-4.3,0-5.9
					l10.6-10.6c1.6-1.6,4.3-1.6,5.9,0l132,132C319.7,199.1,319.7,201.7,318.1,203.3z"/>
			</g>
			<g id="XMLID_1574_">
				<path id="XMLID_1576_" class="st5" d="M295.5,210.8c-0.4,1.8-2.8,2.1-3.9,0.5c-1.2-1.9-3.5-3.4-5.7-4
					c-5.7-1.6-12.4-1.2-15.2-7.6c-1-2.2-0.4-4.6-1.2-6.9c-1.1-3.3-4.1-5.1-5.9-8c-1.4-2.3-1.8-5.2-3.7-7c-1.9-1.8-4.8-2.2-6.8-3.9
					c-3.2-2.7-3.1-8-6.1-10.9c-3.1-3-8.1-2.4-12.2-3.4c-11.7-2.9-8.5-13.1-13.3-21.1c-1.7-2.9-4.4-5.4-7.7-6.2
					c-2.2-0.5-4.8-0.3-6.5-1.9c-2.4-2.2-1.4-6.2-3.3-8.9c-1.5-2.2-4.5-2.8-7.1-3.6c-3.9-1.2-5.4-4.3-7.2-7.6
					c-1.9-3.6-6.5-4.5-9.8-6.8c-4-2.8-5.7-7.1-7.4-11.5c-0.9-2.3-2.5-9,2.5-7.3c3.7,1.3,5.2,5.8,8.4,8c2.9,2,6.7,1.8,10,2.8
					c9.2,2.7,11,11.9,17.2,17.8c4.8,4.5,13.2,5.3,15.5,12.2c1.5,4.8-0.3,11.4,4.1,13.8c1.9,1.1,4.2,0.8,6.3,1.4
					c3,0.8,5.4,3.4,5.9,6.4c0.2,1.1,0.2,2.3,0.6,3.4c1.3,3.3,5.5,3.8,9,4.6c6.1,1.4,11.7,5.2,15,10.5c2.4,3.7,3.9,8.2,7.5,10.5
					c1.4,0.9,3.2,1.6,4.1,3c2,3.3-2,6.9-0.4,10.2c1.1,2.2,5.8,4.2,7.8,5.5c3.8,2.4,7.3,5.6,8.9,9.8
					C295.8,206.9,295.9,208.9,295.5,210.8z"/>
				<linearGradient id="XMLID_11_" gradientUnits="userSpaceOnUse" x1="210.1285" y1="170.3397" x2="250.2863" y2="132.6918">
					<stop  offset="0" style="stop-color:#FFFFFF;stop-opacity:0"/>
					<stop  offset="1" style="stop-color:#9CCC65"/>
				</linearGradient>
				<path id="XMLID_1575_" class="st15" d="M295.5,210.8c-0.4,1.8-2.8,2.1-3.9,0.5c-1.2-1.9-3.5-3.4-5.7-4
					c-5.7-1.6-12.4-1.2-15.2-7.6c-1-2.2-0.4-4.6-1.2-6.9c-1.1-3.3-4.1-5.1-5.9-8c-1.4-2.3-1.8-5.2-3.7-7c-1.9-1.8-4.8-2.2-6.8-3.9
					c-3.2-2.7-3.1-8-6.1-10.9c-3.1-3-8.1-2.4-12.2-3.4c-11.7-2.9-8.5-13.1-13.3-21.1c-1.7-2.9-4.4-5.4-7.7-6.2
					c-2.2-0.5-4.8-0.3-6.5-1.9c-2.4-2.2-1.4-6.2-3.3-8.9c-1.5-2.2-4.5-2.8-7.1-3.6c-3.9-1.2-5.4-4.3-7.2-7.6
					c-1.9-3.6-6.5-4.5-9.8-6.8c-4-2.8-5.7-7.1-7.4-11.5c-0.9-2.3-2.5-9,2.5-7.3c3.7,1.3,5.2,5.8,8.4,8c2.9,2,6.7,1.8,10,2.8
					c9.2,2.7,11,11.9,17.2,17.8c4.8,4.5,13.2,5.3,15.5,12.2c1.5,4.8-0.3,11.4,4.1,13.8c1.9,1.1,4.2,0.8,6.3,1.4
					c3,0.8,5.4,3.4,5.9,6.4c0.2,1.1,0.2,2.3,0.6,3.4c1.3,3.3,5.5,3.8,9,4.6c6.1,1.4,11.7,5.2,15,10.5c2.4,3.7,3.9,8.2,7.5,10.5
					c1.4,0.9,3.2,1.6,4.1,3c2,3.3-2,6.9-0.4,10.2c1.1,2.2,5.8,4.2,7.8,5.5c3.8,2.4,7.3,5.6,8.9,9.8
					C295.8,206.9,295.9,208.9,295.5,210.8z"/>
			</g>
			<g id="XMLID_1551_">
				<path id="XMLID_1435_" class="st16" d="M170.1,92.3c0.8-0.2,1.7,0.2,2.5,0.5c6.7,3.1,10.7,9.9,15.7,15.4
					c10.1,11.3,24.8,17.5,35.5,28.3c5.8,5.9,10.3,13,16,18.9c7.2,7.4,16.4,12.9,22.9,21c3.8,4.8,6.5,10.3,10.6,14.8
					c3.8,4,8.6,7,12.4,11c3.8,4,6.5,9.8,4.8,15c-0.6,1.8-1.8,3.5-3.6,4.2c-3.3,1.4-7-0.9-9.8-3.2c-17.1-13.5-34.5-27.3-47.4-44.9
					c-5.5-7.5-10.3-15.9-17.4-21.8c-4.9-4-10.6-6.8-15.6-10.7c-6.4-5-11.4-11.6-17.2-17.3c-3.2-3.2-6.8-6.1-9.4-9.7
					c-2.9-4-3.7-7.6-3-12.3C167.3,99.2,167.1,92.8,170.1,92.3z"/>
				<linearGradient id="XMLID_12_" gradientUnits="userSpaceOnUse" x1="233.8662" y1="150.6026" x2="218.3887" y2="169.0082">
					<stop  offset="0" style="stop-color:#FFFFFF;stop-opacity:0"/>
					<stop  offset="1" style="stop-color:#EAB588"/>
				</linearGradient>
				<path id="XMLID_1493_" class="st17" d="M170.1,92.3c0.8-0.2,1.7,0.2,2.5,0.5c6.7,3.1,10.7,9.9,15.7,15.4
					c10.1,11.3,24.8,17.5,35.5,28.3c5.8,5.9,10.3,13,16,18.9c7.2,7.4,16.4,12.9,22.9,21c3.8,4.8,6.5,10.3,10.6,14.8
					c3.8,4,8.6,7,12.4,11c3.8,4,6.5,9.8,4.8,15c-0.6,1.8-1.8,3.5-3.6,4.2c-3.3,1.4-7-0.9-9.8-3.2c-17.1-13.5-34.5-27.3-47.4-44.9
					c-5.5-7.5-10.3-15.9-17.4-21.8c-4.9-4-10.6-6.8-15.6-10.7c-6.4-5-11.4-11.6-17.2-17.3c-3.2-3.2-6.8-6.1-9.4-9.7
					c-2.9-4-3.7-7.6-3-12.3C167.3,99.2,167.1,92.8,170.1,92.3z"/>
				<path id="XMLID_1520_" class="st18" d="M181,110.9c4.3,5,9.6,8,15.1,11.7c1.3,0.9,2.6,1.8,3.8,2.9c0.5,0.4,0.9,1,1.6,1.1
					c0.6,0.1,1.4-0.3,1.3-1c0-0.3-0.2-0.5-0.4-0.7c-4-4.6-10.1-6.8-14.1-11.3c-0.9-1-1.5-2.1-2.3-3.2c-1-1.3-2.2-2.4-3.5-3.4
					C179.5,104.9,179.7,109.3,181,110.9z"/>
				<path id="XMLID_1547_" class="st18" d="M217.9,143c0.8,0.8,1.5,1.5,2.5,2.1c0.9,0.5,2.1,0.8,3.1,0.5c0.1-1.1-0.6-2.1-1.3-2.9
					c-1.2-1.5-2.7-2.8-4.3-3.9c-0.7-0.5-1.5-0.9-2.1-1.6c-1.4-1.6-1.9-4.1-4.4-4.6c-1.7-0.3-1.9-0.2-1.5,1.3
					C210.6,136.8,215.8,140.9,217.9,143z"/>
				<path id="XMLID_1548_" class="st18" d="M231.4,162.9c0.4,0.2,0.9,0.4,1.4,0.4c0.5,0,1-0.3,1.1-0.7c0.1-0.5-0.2-0.9-0.5-1.3
					c-2.4-3.2-5-6.2-7.8-9c-3.3-3.3-5.5,0.6-3.1,3.5C224.7,158.7,228,161.3,231.4,162.9z"/>
				<path id="XMLID_1549_" class="st18" d="M246.8,170.3c2.2,2,3.7,4.6,6,6.3c0.4,0.3,1,0.6,1.5,0.5c0.6-0.2,0.9-0.9,0.7-1.5
					c-0.1-0.6-0.5-1.1-0.9-1.6c-3.2-3.8-6.7-7.5-10.4-10.9c-0.2-0.1-0.3-0.3-0.5-0.4c-2.1-0.7-1.4,2.8-1,3.5
					C243.3,167.9,245.4,169,246.8,170.3z"/>
				<path id="XMLID_1550_" class="st18" d="M262.4,192.5c1,1.3,2.2,2.6,3.8,2.9c0.3,0.1,0.7,0.1,0.9-0.1c0.5-0.3,0.7-0.9,0.6-1.4
					c-0.1-0.5-0.5-1-0.8-1.4c-0.9-1.2-5.3-8.4-6.6-7.8C257.9,185.7,261.8,191.6,262.4,192.5z"/>
			</g>
			<path id="XMLID_1438_" class="st19" d="M276.7,231.6L276.7,231.6c-2.3,1.6-5.4,1-7-1.3l-36.8-53c-1.6-2.3-1-5.4,1.3-7l0,0
				c2.3-1.6,5.4-1,7,1.3l36.8,53C279.6,226.9,279,230,276.7,231.6z"/>
			<linearGradient id="XMLID_13_" gradientUnits="userSpaceOnUse" x1="288.76" y1="187.782" x2="215.4166" y2="216.7847">
				<stop  offset="0" style="stop-color:#FFFFFF;stop-opacity:0"/>
				<stop  offset="1" style="stop-color:#9E3B32"/>
			</linearGradient>
			<path id="XMLID_1466_" class="st20" d="M276.7,231.6L276.7,231.6c-2.3,1.6-5.4,1-7-1.3l-36.8-53c-1.6-2.3-1-5.4,1.3-7l0,0
				c2.3-1.6,5.4-1,7,1.3l36.8,53C279.6,226.9,279,230,276.7,231.6z"/>
			<path id="XMLID_1439_" class="st19" d="M214,150.2L214,150.2c-1.7,2.2-4.8,2.6-7,1l-51.4-39c-2.2-1.7-2.6-4.8-1-7l0,0
				c1.7-2.2,4.8-2.6,7-1l51.4,39C215.2,144.9,215.6,148,214,150.2z"/>
			<linearGradient id="XMLID_14_" gradientUnits="userSpaceOnUse" x1="189.411" y1="102.1152" x2="177.6983" y2="160.1209">
				<stop  offset="0" style="stop-color:#FFFFFF;stop-opacity:0"/>
				<stop  offset="1" style="stop-color:#9E3B32"/>
			</linearGradient>
			<path id="XMLID_1437_" class="st21" d="M214,150.2L214,150.2c-1.7,2.2-4.8,2.6-7,1l-51.4-39c-2.2-1.7-2.6-4.8-1-7l0,0
				c1.7-2.2,4.8-2.6,7-1l51.4,39C215.2,144.9,215.6,148,214,150.2z"/>
			<g id="XMLID_1427_">
				<path id="XMLID_1403_" class="st11" d="M277.8,242l-10.6,10.6c-1.6,1.6-4.3,1.6-5.9,0l-132-132c-1.6-1.6-1.6-4.3,0-5.9
					l10.6-10.6c1.6-1.6,4.3-1.6,5.9,0l132,132C279.4,237.7,279.4,240.4,277.8,242z"/>
				<g id="XMLID_1411_">
					<path id="XMLID_1410_" class="st12" d="M152.6,120.7c0-1.3,1-2.3,2.3-2.3c1.3,0,2.3,1,2.3,2.3s-1,2.3-2.3,2.3
						C153.6,123,152.6,122,152.6,120.7z"/>
					<path id="XMLID_1419_" class="st12" d="M218.2,199.3c0-1.3,1-2.3,2.3-2.3s2.3,1,2.3,2.3s-1,2.3-2.3,2.3
						S218.2,200.5,218.2,199.3z"/>
					<path id="XMLID_1420_" class="st12" d="M238.8,210.4c0-1.3,1-2.3,2.3-2.3s2.3,1,2.3,2.3s-1,2.3-2.3,2.3
						S238.8,211.7,238.8,210.4z"/>
					<path id="XMLID_1424_" class="st12" d="M260.3,236.6c0-1.3,1-2.3,2.3-2.3c1.3,0,2.3,1,2.3,2.3s-1,2.3-2.3,2.3
						C261.3,238.9,260.3,237.9,260.3,236.6z"/>
					<path id="XMLID_1413_" class="st12" d="M181.2,152.5c0-1.3,1-2.3,2.3-2.3s2.3,1,2.3,2.3c0,1.3-1,2.3-2.3,2.3
						S181.2,153.7,181.2,152.5z"/>
					<path id="XMLID_1409_" class="st12" d="M147.1,116.8c0-0.7,0.6-1.3,1.3-1.3s1.3,0.6,1.3,1.3c0,0.7-0.6,1.3-1.3,1.3
						S147.1,117.5,147.1,116.8z"/>
					<path id="XMLID_1412_" class="st12" d="M150.8,133c0-0.7,0.6-1.3,1.3-1.3c0.7,0,1.3,0.6,1.3,1.3c0,0.7-0.6,1.3-1.3,1.3
						C151.4,134.3,150.8,133.7,150.8,133z"/>
					<path id="XMLID_1414_" class="st12" d="M174,146c0-0.7,0.6-1.3,1.3-1.3s1.3,0.6,1.3,1.3s-0.6,1.3-1.3,1.3S174,146.7,174,146z"
						/>
					<path id="XMLID_1415_" class="st12" d="M190.2,172.1c0-0.7,0.6-1.3,1.3-1.3c0.7,0,1.3,0.6,1.3,1.3c0,0.7-0.6,1.3-1.3,1.3
						C190.7,173.4,190.2,172.9,190.2,172.1z"/>
					<path id="XMLID_1416_" class="st12" d="M205.8,178c0-0.7,0.6-1.3,1.3-1.3c0.7,0,1.3,0.6,1.3,1.3c0,0.7-0.6,1.3-1.3,1.3
						C206.4,179.3,205.8,178.7,205.8,178z"/>
					<path id="XMLID_1417_" class="st12" d="M205.8,185.9c0-0.7,0.6-1.3,1.3-1.3c0.7,0,1.3,0.6,1.3,1.3s-0.6,1.3-1.3,1.3
						C206.4,187.2,205.8,186.6,205.8,185.9z"/>
					<circle id="XMLID_1418_" class="st12" cx="228.8" cy="193.1" r="1.3"/>
					<path id="XMLID_1421_" class="st12" d="M233.1,209.1c0-0.7,0.6-1.3,1.3-1.3s1.3,0.6,1.3,1.3c0,0.7-0.6,1.3-1.3,1.3
						S233.1,209.8,233.1,209.1z"/>
					<path id="XMLID_1422_" class="st12" d="M242.1,224.6c0-0.7,0.6-1.3,1.3-1.3c0.7,0,1.3,0.6,1.3,1.3s-0.6,1.3-1.3,1.3
						C242.7,225.9,242.1,225.3,242.1,224.6z"/>
					<path id="XMLID_1423_" class="st12" d="M252.9,224.6c0-0.7,0.6-1.3,1.3-1.3c0.7,0,1.3,0.6,1.3,1.3s-0.6,1.3-1.3,1.3
						C253.5,225.9,252.9,225.3,252.9,224.6z"/>
				</g>
				<linearGradient id="XMLID_15_" gradientUnits="userSpaceOnUse" x1="128.0343" y1="178.3256" x2="278.9751" y2="178.3256">
					<stop  offset="0" style="stop-color:#FFFFFF;stop-opacity:0"/>
					<stop  offset="1" style="stop-color:#F9D1A0"/>
				</linearGradient>
				<path id="XMLID_1425_" class="st22" d="M277.8,242l-10.6,10.6c-1.6,1.6-4.3,1.6-5.9,0l-132-132c-1.6-1.6-1.6-4.3,0-5.9
					l10.6-10.6c1.6-1.6,4.3-1.6,5.9,0l132,132C279.4,237.7,279.4,240.4,277.8,242z"/>
			</g>
			<g id="XMLID_1553_">
				<path id="XMLID_1434_" class="st5" d="M274,232.3c-0.4,1.8-2.8,2.1-3.9,0.5c-1.2-1.9-3.5-3.4-5.7-4c-5.7-1.6-12.4-1.2-15.2-7.6
					c-1-2.2-0.4-4.6-1.2-6.9c-1.1-3.3-4.1-5.1-5.9-8c-1.4-2.3-1.8-5.2-3.7-7c-1.9-1.8-4.8-2.2-6.8-3.9c-3.2-2.7-3.1-8-6.1-10.9
					c-3.1-3-8.1-2.4-12.2-3.4c-11.7-2.9-8.5-13.1-13.3-21.1c-1.7-2.9-4.4-5.4-7.7-6.2c-2.2-0.5-4.8-0.3-6.5-1.9
					c-2.4-2.2-1.4-6.2-3.3-8.9c-1.5-2.2-4.5-2.8-7.1-3.6c-3.9-1.2-5.4-4.3-7.2-7.6c-1.9-3.6-6.5-4.5-9.8-6.8
					c-4-2.8-5.7-7.1-7.4-11.5c-0.9-2.3-2.5-9,2.5-7.3c3.7,1.3,5.2,5.8,8.4,8c2.9,2,6.7,1.8,10,2.8c9.2,2.7,11,11.9,17.2,17.8
					c4.8,4.5,13.2,5.3,15.5,12.2c1.5,4.8-0.3,11.4,4.1,13.8c1.9,1.1,4.2,0.8,6.3,1.4c3,0.8,5.4,3.4,5.9,6.4c0.2,1.1,0.2,2.3,0.6,3.4
					c1.3,3.3,5.5,3.8,9,4.6c6.1,1.4,11.7,5.2,15,10.5c2.4,3.7,3.9,8.2,7.5,10.5c1.4,0.9,3.2,1.6,4.1,3c2,3.3-2,6.9-0.4,10.2
					c1.1,2.2,5.8,4.2,7.8,5.5c3.8,2.4,7.3,5.6,8.9,9.8C274.3,228.4,274.5,230.4,274,232.3z"/>
				<linearGradient id="XMLID_16_" gradientUnits="userSpaceOnUse" x1="188.6764" y1="191.7918" x2="228.8342" y2="154.1438">
					<stop  offset="0" style="stop-color:#FFFFFF;stop-opacity:0"/>
					<stop  offset="1" style="stop-color:#9CCC65"/>
				</linearGradient>
				<path id="XMLID_1552_" class="st23" d="M274,232.3c-0.4,1.8-2.8,2.1-3.9,0.5c-1.2-1.9-3.5-3.4-5.7-4c-5.7-1.6-12.4-1.2-15.2-7.6
					c-1-2.2-0.4-4.6-1.2-6.9c-1.1-3.3-4.1-5.1-5.9-8c-1.4-2.3-1.8-5.2-3.7-7c-1.9-1.8-4.8-2.2-6.8-3.9c-3.2-2.7-3.1-8-6.1-10.9
					c-3.1-3-8.1-2.4-12.2-3.4c-11.7-2.9-8.5-13.1-13.3-21.1c-1.7-2.9-4.4-5.4-7.7-6.2c-2.2-0.5-4.8-0.3-6.5-1.9
					c-2.4-2.2-1.4-6.2-3.3-8.9c-1.5-2.2-4.5-2.8-7.1-3.6c-3.9-1.2-5.4-4.3-7.2-7.6c-1.9-3.6-6.5-4.5-9.8-6.8
					c-4-2.8-5.7-7.1-7.4-11.5c-0.9-2.3-2.5-9,2.5-7.3c3.7,1.3,5.2,5.8,8.4,8c2.9,2,6.7,1.8,10,2.8c9.2,2.7,11,11.9,17.2,17.8
					c4.8,4.5,13.2,5.3,15.5,12.2c1.5,4.8-0.3,11.4,4.1,13.8c1.9,1.1,4.2,0.8,6.3,1.4c3,0.8,5.4,3.4,5.9,6.4c0.2,1.1,0.2,2.3,0.6,3.4
					c1.3,3.3,5.5,3.8,9,4.6c6.1,1.4,11.7,5.2,15,10.5c2.4,3.7,3.9,8.2,7.5,10.5c1.4,0.9,3.2,1.6,4.1,3c2,3.3-2,6.9-0.4,10.2
					c1.1,2.2,5.8,4.2,7.8,5.5c3.8,2.4,7.3,5.6,8.9,9.8C274.3,228.4,274.5,230.4,274,232.3z"/>
			</g>
			<path id="XMLID_1436_" class="st19" d="M238.5,183.8L238.5,183.8c-2,2-5.1,2-7.1,0l-45.6-45.6c-2-2-2-5.1,0-7.1l0,0
				c2-2,5.1-2,7.1,0l45.6,45.6C240.4,178.7,240.4,181.9,238.5,183.8z"/>
		</g>
	</g>
</g>
</svg>
