<?xml version="1.0" encoding="utf-8"?>
<!-- Generator: Adobe Illustrator 23.0.1, SVG Export Plug-In . SVG Version: 6.00 Build 0)  -->
<svg version="1.1" id="Warstwa_1" xmlns="http://www.w3.org/2000/svg" xmlns:xlink="http://www.w3.org/1999/xlink" x="0px" y="0px"
	 viewBox="0 0 380 380" style="enable-background:new 0 0 380 380;" xml:space="preserve">
<style type="text/css">
	.st0{fill:#FFFFFF;}
	.st1{fill:#E6F1FF;}
	.st2{fill:#CCDCED;}
	.st3{fill:url(#XMLID_2_);}
	.st4{fill:#F3F9FF;}
	.st5{fill:#E25D47;}
	.st6{fill:#F76652;}
	.st7{fill:url(#XMLID_3_);}
	.st8{fill:#FFECB3;}
	.st9{fill:#7BC138;}
	.st10{fill:url(#XMLID_4_);}
	.st11{fill:url(#XMLID_5_);}
	.st12{fill:#9CCC65;}
	.st13{fill:#C0EF84;}
	.st14{fill:url(#XMLID_6_);}
	.st15{fill:url(#XMLID_7_);}
	.st16{fill:url(#XMLID_8_);}
	.st17{fill:url(#XMLID_9_);}
	.st18{fill:url(#XMLID_10_);}
	.st19{fill:url(#XMLID_11_);}
	.st20{fill:url(#XMLID_12_);}
	.st21{fill:url(#XMLID_13_);}
	.st22{fill:url(#XMLID_14_);}
	.st23{fill:#FFC47D;}
	.st24{fill:#EFA236;}
	.st25{fill:url(#XMLID_15_);}
	.st26{fill:url(#XMLID_16_);}
	.st27{fill:url(#XMLID_17_);}
	.st28{fill:#FFCE55;}
	.st29{fill:url(#XMLID_18_);}
	.st30{fill:#F7D33C;}
	.st31{fill:#BF392E;}
	.st32{fill:url(#XMLID_19_);}
	.st33{fill:url(#XMLID_20_);}
	.st34{fill:url(#XMLID_21_);}
	.st35{fill:url(#XMLID_22_);}
</style>
<g>
	<g>
		<g>
			<circle class="st0" cx="190.8" cy="190.8" r="189.3"/>
		</g>
	</g>
</g>
<g id="XMLID_1384_">
	<g id="XMLID_1650_">
		<circle id="XMLID_1653_" class="st1" cx="193.6" cy="191.2" r="151.4"/>
		<path id="XMLID_1652_" class="st0" d="M44.1,193c0-83.6,67.8-151.4,151.4-151.4c41.3,0,78.8,16.6,106.1,43.4
			c-27.5-27.9-65.7-45.3-107.9-45.3c-83.6,0-151.4,67.8-151.4,151.4c0,42.3,17.3,80.5,45.3,107.9C60.7,271.8,44.1,234.4,44.1,193z"
			/>
		<path id="XMLID_1651_" class="st2" d="M298.7,82.3c26.3,27.2,42.4,64.3,42.4,105.1c0,83.6-67.8,151.4-151.4,151.4
			c-40.8,0-77.9-16.2-105.1-42.4c27.5,28.5,66.2,46.3,108.9,46.3c83.6,0,151.4-67.8,151.4-151.4C345,148.4,327.3,109.8,298.7,82.3z"
			/>
	</g>
	<linearGradient id="XMLID_2_" gradientUnits="userSpaceOnUse" x1="309.3386" y1="305.6713" x2="111.4091" y2="110.2579">
		<stop  offset="0" style="stop-color:#FFFFFF;stop-opacity:0"/>
		<stop  offset="1" style="stop-color:#3D4B5C"/>
	</linearGradient>
	<circle id="XMLID_1649_" class="st3" cx="210.4" cy="208" r="114.4"/>
	<g id="XMLID_1644_">
		<circle id="XMLID_1648_" class="st4" cx="193.6" cy="191.2" r="114.4"/>
		<circle id="XMLID_1647_" class="st1" cx="193.6" cy="191.2" r="103.8"/>
		<path id="XMLID_1646_" class="st0" d="M80.6,192.6c0-63.2,51.2-114.4,114.4-114.4c31.2,0,59.6,12.5,80.2,32.8
			c-20.8-21.1-49.6-34.2-81.6-34.2c-63.2,0-114.4,51.2-114.4,114.4c0,31.9,13.1,60.8,34.2,81.6C93.1,252.2,80.6,223.8,80.6,192.6z"
			/>
		<path id="XMLID_1645_" class="st2" d="M273.1,108.9c19.9,20.6,32.1,48.6,32.1,79.4c0,63.2-51.2,114.4-114.4,114.4
			c-30.9,0-58.9-12.2-79.4-32.1c20.8,21.6,50,35,82.3,35c63.2,0,114.4-51.2,114.4-114.4C308,158.9,294.6,129.7,273.1,108.9z"/>
	</g>
	<circle id="XMLID_1643_" class="st5" cx="193.6" cy="191.2" r="103.8"/>
	<path id="XMLID_1113_" class="st6" d="M106.8,171.1c-3.5,22.2,1.5,45.6,13.9,64.4c8.8,13.3,21.1,24.2,35.3,31.4
		c9,4.6,32.4,14.5,34.9-3.6c0.4-3.1-0.6-6.3-2.3-9c-6.8-11-21.4-13.2-33-19c-13.1-6.6-23.2-19.3-25.9-33.8
		c-4.6-24.6,14.1-52.2,41.1-47.3c3.5,0.6,7,1.8,10.5,1.6c3.6-0.2,7.4-2.2,8.2-5.7c1.9-8.2-13.3-13.6-10.4-21.4
		c1.2-3.1,4.8-4.5,8.1-4.5c4.2-0.1,11.7,0.5,15.5-1c1.7-0.7,3-2.2,3.7-3.9c1.8-4.3,0.2-9.6-3.1-12.9c-3.3-3.4-7.9-5.1-12.5-5.9
		C150.9,93.8,112.6,134.2,106.8,171.1z"/>
	<linearGradient id="XMLID_3_" gradientUnits="userSpaceOnUse" x1="158.2096" y1="114.2851" x2="294.6352" y2="410.619">
		<stop  offset="0" style="stop-color:#FFFFFF;stop-opacity:0"/>
		<stop  offset="1" style="stop-color:#9E3B32"/>
	</linearGradient>
	<circle id="XMLID_1145_" class="st7" cx="193.6" cy="191.2" r="103.8"/>
	<path id="XMLID_1114_" class="st6" d="M236.7,121.2c0,4.9-4,8.9-8.9,8.9s-8.9-4-8.9-8.9c0-4.9,4-8.9,8.9-8.9
		S236.7,116.2,236.7,121.2z"/>
	<path id="XMLID_1117_" class="st6" d="M258.2,237.5c0,2.5-2,4.5-4.5,4.5c-2.5,0-4.5-2-4.5-4.5c0-2.5,2-4.5,4.5-4.5
		C256.2,233,258.2,235,258.2,237.5z"/>
	<path id="XMLID_1118_" class="st6" d="M209.7,259.3c0,2.5-2,4.5-4.5,4.5c-2.5,0-4.5-2-4.5-4.5c0-2.5,2-4.5,4.5-4.5
		C207.7,254.8,209.7,256.8,209.7,259.3z"/>
	<path id="XMLID_1115_" class="st6" d="M258.4,156.7c0.7,4.1,2.9,7.8,4.9,11.5c2.9,5.6,5.2,11.6,6.7,17.8c1,4,1.6,8.2,1.2,12.3
		c-0.9,8.3-6.2,15.7-6.5,24c0,1,0,2,0.5,2.8c1.6,2.8,6,1.3,8.3-0.9c10.5-9.8,12-25.9,10.5-40.2c-0.8-7.7-2.2-15.5-5.6-22.5
		c-2.3-4.9-6.4-11.7-11.6-14.1C260.7,144.5,257.4,150.4,258.4,156.7z"/>
	<path id="XMLID_1116_" class="st8" d="M243.7,175c-3.1-16.4-15.5-28.4-30.7-34.2c-4.4-1.7-10.6-2.4-13.9,2c-3.1,4.2,1.2,6.7,5.1,8
		c5.4,1.7,10.9,3.5,15.7,6.4c10.6,6.4,17.3,18.3,19,30.5c1.8,12.9-2.5,23.4-6.1,35.4C244.8,206.9,246.4,189.6,243.7,175z"/>
	<path id="XMLID_1120_" class="st8" d="M166.3,228.4c11.3,11.3,27.6,14,42.7,10.3c4.4-1.1,9.6-3.8,9.8-9.1c0.2-5-4.6-4.6-8.4-3.5
		c-5.2,1.5-10.4,3.2-15.9,3.5c-11.8,0.7-23.5-5.1-31.5-13.8c-8.4-9.3-10.6-19.8-14.3-31.2C148.2,203.9,156.3,218.4,166.3,228.4z"/>
	<g id="XMLID_1119_">
		<path id="XMLID_1122_" class="st9" d="M167.7,180.6c-14.6-8.1-23.5-19.9-23.5-19.9s14.7,1.4,29.3,9.5c3.1,1.7,5.9,3.6,8.4,5.5
			c10.8,8,7.4,14.1-5.1,9.2C173.9,183.7,170.8,182.3,167.7,180.6z"/>
		
			<linearGradient id="XMLID_4_" gradientUnits="userSpaceOnUse" x1="326.5112" y1="325.6095" x2="371.7982" y2="354.9621" gradientTransform="matrix(0.9734 0.2293 -0.2293 0.9734 -91.7145 -235.8058)">
			<stop  offset="0" style="stop-color:#FFFFFF;stop-opacity:0"/>
			<stop  offset="1" style="stop-color:#9CCC65"/>
		</linearGradient>
		<path id="XMLID_1121_" class="st10" d="M167.7,180.6c-14.6-8.1-23.5-19.9-23.5-19.9s14.7,1.4,29.3,9.5c3.1,1.7,5.9,3.6,8.4,5.5
			c10.8,8,7.4,14.1-5.1,9.2C173.9,183.7,170.8,182.3,167.7,180.6z"/>
	</g>
	<g id="XMLID_1235_">
		<linearGradient id="XMLID_5_" gradientUnits="userSpaceOnUse" x1="234.0674" y1="246.662" x2="175.7793" y2="135.9567">
			<stop  offset="0" style="stop-color:#FFFFFF;stop-opacity:0"/>
			<stop  offset="1" style="stop-color:#9E3B32"/>
		</linearGradient>
		<path id="XMLID_1128_" class="st11" d="M204.4,190.6c-3.5,1.8-7.8,0.3-9.6-3.2c-1.8-3.5-0.3-7.8,3.2-9.6c3.5-1.8,7.8-0.3,9.6,3.2
			C209.3,184.5,207.9,188.8,204.4,190.6z"/>
		<path id="XMLID_1124_" class="st12" d="M204.4,187.2c-3.5,1.8-7.8,0.3-9.6-3.2c-1.8-3.5-0.3-7.8,3.2-9.6c3.5-1.8,7.8-0.3,9.6,3.2
			C209.3,181.2,207.9,185.5,204.4,187.2z"/>
		<path id="XMLID_1146_" class="st13" d="M204.7,179.1c0,1.1-0.9,2-2,2s-2-0.9-2-2s0.9-2,2-2S204.7,178,204.7,179.1z"/>
	</g>
	<g id="XMLID_1234_">
		<linearGradient id="XMLID_6_" gradientUnits="userSpaceOnUse" x1="226.6573" y1="250.5636" x2="168.3693" y2="139.8583">
			<stop  offset="0" style="stop-color:#FFFFFF;stop-opacity:0"/>
			<stop  offset="1" style="stop-color:#9E3B32"/>
		</linearGradient>
		<path id="XMLID_1127_" class="st14" d="M207.8,215.2c-3.5,1.8-7.8,0.3-9.6-3.2c-1.8-3.5-0.3-7.8,3.2-9.6c3.5-1.8,7.8-0.3,9.6,3.2
			C212.8,209.1,211.4,213.4,207.8,215.2z"/>
		<path id="XMLID_1123_" class="st12" d="M207.8,211.8c-3.5,1.8-7.8,0.3-9.6-3.2c-1.8-3.5-0.3-7.8,3.2-9.6c3.5-1.8,7.8-0.3,9.6,3.2
			C212.8,205.8,211.4,210.1,207.8,211.8z"/>
		<path id="XMLID_1232_" class="st13" d="M209.3,203.6c0,1.1-0.9,2-2,2c-1.1,0-2-0.9-2-2s0.9-2,2-2
			C208.4,201.7,209.3,202.5,209.3,203.6z"/>
	</g>
	<g id="XMLID_1231_">
		<linearGradient id="XMLID_7_" gradientUnits="userSpaceOnUse" x1="212.3233" y1="258.111" x2="154.035" y2="147.4051">
			<stop  offset="0" style="stop-color:#FFFFFF;stop-opacity:0"/>
			<stop  offset="1" style="stop-color:#9E3B32"/>
		</linearGradient>
		<path id="XMLID_1129_" class="st15" d="M185.8,208c-3.5,1.8-7.8,0.3-9.6-3.2c-1.8-3.5-0.3-7.8,3.2-9.6c3.5-1.8,7.8-0.3,9.6,3.2
			S189.3,206.3,185.8,208z"/>
		<path id="XMLID_1125_" class="st12" d="M185.8,204.7c-3.5,1.8-7.8,0.3-9.6-3.2c-1.8-3.5-0.3-7.8,3.2-9.6s7.8-0.3,9.6,3.2
			S189.3,202.9,185.8,204.7z"/>
		<path id="XMLID_1233_" class="st13" d="M186.5,196.5c0,1.1-0.9,2-2,2c-1.1,0-2-0.9-2-2c0-1.1,0.9-2,2-2
			C185.7,194.5,186.5,195.4,186.5,196.5z"/>
	</g>
</g>
</svg>
